G04 #@! TF.GenerationSoftware,KiCad,Pcbnew,5.1.5-52549c5~84~ubuntu18.04.1*
G04 #@! TF.CreationDate,2020-01-12T14:58:15-06:00*
G04 #@! TF.ProjectId,bloop-zturn-adapter,626c6f6f-702d-47a7-9475-726e2d616461,rev?*
G04 #@! TF.SameCoordinates,Original*
G04 #@! TF.FileFunction,Soldermask,Top*
G04 #@! TF.FilePolarity,Negative*
%FSLAX46Y46*%
G04 Gerber Fmt 4.6, Leading zero omitted, Abs format (unit mm)*
G04 Created by KiCad (PCBNEW 5.1.5-52549c5~84~ubuntu18.04.1) date 2020-01-12 14:58:15*
%MOMM*%
%LPD*%
G04 APERTURE LIST*
%ADD10C,0.100000*%
G04 APERTURE END LIST*
D10*
G36*
X118601000Y-118706000D02*
G01*
X116099000Y-118706000D01*
X116099000Y-117864000D01*
X118601000Y-117864000D01*
X118601000Y-118706000D01*
G37*
G36*
X114701000Y-118706000D02*
G01*
X112199000Y-118706000D01*
X112199000Y-117864000D01*
X114701000Y-117864000D01*
X114701000Y-118706000D01*
G37*
G36*
X119881552Y-117816331D02*
G01*
X119963627Y-117850328D01*
X119963629Y-117850329D01*
X119984089Y-117864000D01*
X120037495Y-117899685D01*
X120100315Y-117962505D01*
X120149672Y-118036373D01*
X120183669Y-118118448D01*
X120201000Y-118205579D01*
X120201000Y-118294421D01*
X120183669Y-118381552D01*
X120149672Y-118463627D01*
X120149671Y-118463629D01*
X120100314Y-118537496D01*
X120037496Y-118600314D01*
X119963629Y-118649671D01*
X119963628Y-118649672D01*
X119963627Y-118649672D01*
X119881552Y-118683669D01*
X119794421Y-118701000D01*
X119705579Y-118701000D01*
X119618448Y-118683669D01*
X119536373Y-118649672D01*
X119536372Y-118649672D01*
X119536371Y-118649671D01*
X119462504Y-118600314D01*
X119399686Y-118537496D01*
X119350329Y-118463629D01*
X119350328Y-118463627D01*
X119316331Y-118381552D01*
X119299000Y-118294421D01*
X119299000Y-118205579D01*
X119316331Y-118118448D01*
X119350328Y-118036373D01*
X119399685Y-117962505D01*
X119462505Y-117899685D01*
X119515911Y-117864000D01*
X119536371Y-117850329D01*
X119536373Y-117850328D01*
X119618448Y-117816331D01*
X119705579Y-117799000D01*
X119794421Y-117799000D01*
X119881552Y-117816331D01*
G37*
G36*
X143539000Y-117820000D02*
G01*
X140287000Y-117820000D01*
X140287000Y-116718000D01*
X143539000Y-116718000D01*
X143539000Y-117820000D01*
G37*
G36*
X138489000Y-117820000D02*
G01*
X135237000Y-117820000D01*
X135237000Y-116718000D01*
X138489000Y-116718000D01*
X138489000Y-117820000D01*
G37*
G36*
X176533600Y-117820000D02*
G01*
X173281600Y-117820000D01*
X173281600Y-116718000D01*
X176533600Y-116718000D01*
X176533600Y-117820000D01*
G37*
G36*
X171483600Y-117820000D02*
G01*
X168231600Y-117820000D01*
X168231600Y-116718000D01*
X171483600Y-116718000D01*
X171483600Y-117820000D01*
G37*
G36*
X111213552Y-116581331D02*
G01*
X111295627Y-116615328D01*
X111295629Y-116615329D01*
X111332813Y-116640175D01*
X111369495Y-116664685D01*
X111432315Y-116727505D01*
X111481672Y-116801373D01*
X111515669Y-116883448D01*
X111533000Y-116970579D01*
X111533000Y-117059421D01*
X111515669Y-117146552D01*
X111481672Y-117228627D01*
X111481671Y-117228629D01*
X111432314Y-117302496D01*
X111369496Y-117365314D01*
X111295629Y-117414671D01*
X111295628Y-117414672D01*
X111295627Y-117414672D01*
X111213552Y-117448669D01*
X111126421Y-117466000D01*
X111037579Y-117466000D01*
X110950448Y-117448669D01*
X110868373Y-117414672D01*
X110868372Y-117414672D01*
X110868371Y-117414671D01*
X110794504Y-117365314D01*
X110731686Y-117302496D01*
X110682329Y-117228629D01*
X110682328Y-117228627D01*
X110648331Y-117146552D01*
X110631000Y-117059421D01*
X110631000Y-116970579D01*
X110648331Y-116883448D01*
X110682328Y-116801373D01*
X110731685Y-116727505D01*
X110794505Y-116664685D01*
X110831187Y-116640175D01*
X110868371Y-116615329D01*
X110868373Y-116615328D01*
X110950448Y-116581331D01*
X111037579Y-116564000D01*
X111126421Y-116564000D01*
X111213552Y-116581331D01*
G37*
G36*
X119849552Y-116581331D02*
G01*
X119931627Y-116615328D01*
X119931629Y-116615329D01*
X119968813Y-116640175D01*
X120005495Y-116664685D01*
X120068315Y-116727505D01*
X120117672Y-116801373D01*
X120151669Y-116883448D01*
X120169000Y-116970579D01*
X120169000Y-117059421D01*
X120151669Y-117146552D01*
X120117672Y-117228627D01*
X120117671Y-117228629D01*
X120068314Y-117302496D01*
X120005496Y-117365314D01*
X119931629Y-117414671D01*
X119931628Y-117414672D01*
X119931627Y-117414672D01*
X119849552Y-117448669D01*
X119762421Y-117466000D01*
X119673579Y-117466000D01*
X119586448Y-117448669D01*
X119504373Y-117414672D01*
X119504372Y-117414672D01*
X119504371Y-117414671D01*
X119430504Y-117365314D01*
X119367686Y-117302496D01*
X119318329Y-117228629D01*
X119318328Y-117228627D01*
X119284331Y-117146552D01*
X119267000Y-117059421D01*
X119267000Y-116970579D01*
X119284331Y-116883448D01*
X119318328Y-116801373D01*
X119367685Y-116727505D01*
X119430505Y-116664685D01*
X119467187Y-116640175D01*
X119504371Y-116615329D01*
X119504373Y-116615328D01*
X119586448Y-116581331D01*
X119673579Y-116564000D01*
X119762421Y-116564000D01*
X119849552Y-116581331D01*
G37*
G36*
X118601000Y-117436000D02*
G01*
X116099000Y-117436000D01*
X116099000Y-116594000D01*
X118601000Y-116594000D01*
X118601000Y-117436000D01*
G37*
G36*
X114701000Y-117436000D02*
G01*
X112199000Y-117436000D01*
X112199000Y-116594000D01*
X114701000Y-116594000D01*
X114701000Y-117436000D01*
G37*
G36*
X119874952Y-115336731D02*
G01*
X119957027Y-115370728D01*
X119957029Y-115370729D01*
X119994213Y-115395575D01*
X120030895Y-115420085D01*
X120093715Y-115482905D01*
X120143072Y-115556773D01*
X120177069Y-115638848D01*
X120194400Y-115725979D01*
X120194400Y-115814821D01*
X120177069Y-115901952D01*
X120143072Y-115984027D01*
X120143071Y-115984029D01*
X120093714Y-116057896D01*
X120030896Y-116120714D01*
X119957029Y-116170071D01*
X119957028Y-116170072D01*
X119957027Y-116170072D01*
X119874952Y-116204069D01*
X119787821Y-116221400D01*
X119698979Y-116221400D01*
X119611848Y-116204069D01*
X119529773Y-116170072D01*
X119529772Y-116170072D01*
X119529771Y-116170071D01*
X119455904Y-116120714D01*
X119393086Y-116057896D01*
X119343729Y-115984029D01*
X119343728Y-115984027D01*
X119309731Y-115901952D01*
X119292400Y-115814821D01*
X119292400Y-115725979D01*
X119309731Y-115638848D01*
X119343728Y-115556773D01*
X119393085Y-115482905D01*
X119455905Y-115420085D01*
X119492587Y-115395575D01*
X119529771Y-115370729D01*
X119529773Y-115370728D01*
X119611848Y-115336731D01*
X119698979Y-115319400D01*
X119787821Y-115319400D01*
X119874952Y-115336731D01*
G37*
G36*
X114701000Y-116166000D02*
G01*
X112199000Y-116166000D01*
X112199000Y-115324000D01*
X114701000Y-115324000D01*
X114701000Y-116166000D01*
G37*
G36*
X118601000Y-116166000D02*
G01*
X116099000Y-116166000D01*
X116099000Y-115324000D01*
X118601000Y-115324000D01*
X118601000Y-116166000D01*
G37*
G36*
X176533600Y-115280000D02*
G01*
X173281600Y-115280000D01*
X173281600Y-114178000D01*
X176533600Y-114178000D01*
X176533600Y-115280000D01*
G37*
G36*
X171483600Y-115280000D02*
G01*
X168231600Y-115280000D01*
X168231600Y-114178000D01*
X171483600Y-114178000D01*
X171483600Y-115280000D01*
G37*
G36*
X138489000Y-115280000D02*
G01*
X135237000Y-115280000D01*
X135237000Y-114178000D01*
X138489000Y-114178000D01*
X138489000Y-115280000D01*
G37*
G36*
X143539000Y-115280000D02*
G01*
X140287000Y-115280000D01*
X140287000Y-114178000D01*
X143539000Y-114178000D01*
X143539000Y-115280000D01*
G37*
G36*
X119849552Y-114041331D02*
G01*
X119931627Y-114075328D01*
X119931629Y-114075329D01*
X119968813Y-114100175D01*
X120005495Y-114124685D01*
X120068315Y-114187505D01*
X120117672Y-114261373D01*
X120151669Y-114343448D01*
X120169000Y-114430579D01*
X120169000Y-114519421D01*
X120151669Y-114606552D01*
X120117672Y-114688627D01*
X120117671Y-114688629D01*
X120068314Y-114762496D01*
X120005496Y-114825314D01*
X119931629Y-114874671D01*
X119931628Y-114874672D01*
X119931627Y-114874672D01*
X119849552Y-114908669D01*
X119762421Y-114926000D01*
X119673579Y-114926000D01*
X119586448Y-114908669D01*
X119504373Y-114874672D01*
X119504372Y-114874672D01*
X119504371Y-114874671D01*
X119430504Y-114825314D01*
X119367686Y-114762496D01*
X119318329Y-114688629D01*
X119318328Y-114688627D01*
X119284331Y-114606552D01*
X119267000Y-114519421D01*
X119267000Y-114430579D01*
X119284331Y-114343448D01*
X119318328Y-114261373D01*
X119367685Y-114187505D01*
X119430505Y-114124685D01*
X119467187Y-114100175D01*
X119504371Y-114075329D01*
X119504373Y-114075328D01*
X119586448Y-114041331D01*
X119673579Y-114024000D01*
X119762421Y-114024000D01*
X119849552Y-114041331D01*
G37*
G36*
X118601000Y-114896000D02*
G01*
X116099000Y-114896000D01*
X116099000Y-114054000D01*
X118601000Y-114054000D01*
X118601000Y-114896000D01*
G37*
G36*
X114701000Y-114896000D02*
G01*
X112199000Y-114896000D01*
X112199000Y-114054000D01*
X114701000Y-114054000D01*
X114701000Y-114896000D01*
G37*
G36*
X118601000Y-113626000D02*
G01*
X116099000Y-113626000D01*
X116099000Y-112784000D01*
X118601000Y-112784000D01*
X118601000Y-113626000D01*
G37*
G36*
X114701000Y-113626000D02*
G01*
X112199000Y-113626000D01*
X112199000Y-112784000D01*
X114701000Y-112784000D01*
X114701000Y-113626000D01*
G37*
G36*
X138489000Y-112740000D02*
G01*
X135237000Y-112740000D01*
X135237000Y-111638000D01*
X138489000Y-111638000D01*
X138489000Y-112740000D01*
G37*
G36*
X171483600Y-112740000D02*
G01*
X168231600Y-112740000D01*
X168231600Y-111638000D01*
X171483600Y-111638000D01*
X171483600Y-112740000D01*
G37*
G36*
X176533600Y-112740000D02*
G01*
X173281600Y-112740000D01*
X173281600Y-111638000D01*
X176533600Y-111638000D01*
X176533600Y-112740000D01*
G37*
G36*
X143539000Y-112740000D02*
G01*
X140287000Y-112740000D01*
X140287000Y-111638000D01*
X143539000Y-111638000D01*
X143539000Y-112740000D01*
G37*
G36*
X119824152Y-111501331D02*
G01*
X119906227Y-111535328D01*
X119906229Y-111535329D01*
X119943413Y-111560175D01*
X119980095Y-111584685D01*
X120042915Y-111647505D01*
X120092272Y-111721373D01*
X120126269Y-111803448D01*
X120143600Y-111890579D01*
X120143600Y-111979421D01*
X120126269Y-112066552D01*
X120092272Y-112148627D01*
X120092271Y-112148629D01*
X120042914Y-112222496D01*
X119980096Y-112285314D01*
X119906229Y-112334671D01*
X119906228Y-112334672D01*
X119906227Y-112334672D01*
X119824152Y-112368669D01*
X119737021Y-112386000D01*
X119648179Y-112386000D01*
X119561048Y-112368669D01*
X119478973Y-112334672D01*
X119478972Y-112334672D01*
X119478971Y-112334671D01*
X119405104Y-112285314D01*
X119342286Y-112222496D01*
X119292929Y-112148629D01*
X119292928Y-112148627D01*
X119258931Y-112066552D01*
X119241600Y-111979421D01*
X119241600Y-111890579D01*
X119258931Y-111803448D01*
X119292928Y-111721373D01*
X119342285Y-111647505D01*
X119405105Y-111584685D01*
X119441787Y-111560175D01*
X119478971Y-111535329D01*
X119478973Y-111535328D01*
X119561048Y-111501331D01*
X119648179Y-111484000D01*
X119737021Y-111484000D01*
X119824152Y-111501331D01*
G37*
G36*
X118601000Y-112356000D02*
G01*
X116099000Y-112356000D01*
X116099000Y-111514000D01*
X118601000Y-111514000D01*
X118601000Y-112356000D01*
G37*
G36*
X114701000Y-112356000D02*
G01*
X112199000Y-112356000D01*
X112199000Y-111514000D01*
X114701000Y-111514000D01*
X114701000Y-112356000D01*
G37*
G36*
X119824152Y-110231331D02*
G01*
X119906227Y-110265328D01*
X119906229Y-110265329D01*
X119943413Y-110290175D01*
X119980095Y-110314685D01*
X120042915Y-110377505D01*
X120092272Y-110451373D01*
X120126269Y-110533448D01*
X120143600Y-110620579D01*
X120143600Y-110709421D01*
X120126269Y-110796552D01*
X120092272Y-110878627D01*
X120092271Y-110878629D01*
X120042914Y-110952496D01*
X119980096Y-111015314D01*
X119906229Y-111064671D01*
X119906228Y-111064672D01*
X119906227Y-111064672D01*
X119824152Y-111098669D01*
X119737021Y-111116000D01*
X119648179Y-111116000D01*
X119561048Y-111098669D01*
X119478973Y-111064672D01*
X119478972Y-111064672D01*
X119478971Y-111064671D01*
X119405104Y-111015314D01*
X119342286Y-110952496D01*
X119292929Y-110878629D01*
X119292928Y-110878627D01*
X119258931Y-110796552D01*
X119241600Y-110709421D01*
X119241600Y-110620579D01*
X119258931Y-110533448D01*
X119292928Y-110451373D01*
X119342285Y-110377505D01*
X119405105Y-110314685D01*
X119441787Y-110290175D01*
X119478971Y-110265329D01*
X119478973Y-110265328D01*
X119561048Y-110231331D01*
X119648179Y-110214000D01*
X119737021Y-110214000D01*
X119824152Y-110231331D01*
G37*
G36*
X118601000Y-111086000D02*
G01*
X116099000Y-111086000D01*
X116099000Y-110244000D01*
X118601000Y-110244000D01*
X118601000Y-111086000D01*
G37*
G36*
X114701000Y-111086000D02*
G01*
X112199000Y-111086000D01*
X112199000Y-110244000D01*
X114701000Y-110244000D01*
X114701000Y-111086000D01*
G37*
G36*
X143539000Y-110200000D02*
G01*
X140287000Y-110200000D01*
X140287000Y-109098000D01*
X143539000Y-109098000D01*
X143539000Y-110200000D01*
G37*
G36*
X171483600Y-110200000D02*
G01*
X168231600Y-110200000D01*
X168231600Y-109098000D01*
X171483600Y-109098000D01*
X171483600Y-110200000D01*
G37*
G36*
X138489000Y-110200000D02*
G01*
X135237000Y-110200000D01*
X135237000Y-109098000D01*
X138489000Y-109098000D01*
X138489000Y-110200000D01*
G37*
G36*
X176533600Y-110200000D02*
G01*
X173281600Y-110200000D01*
X173281600Y-109098000D01*
X176533600Y-109098000D01*
X176533600Y-110200000D01*
G37*
G36*
X166687152Y-109215331D02*
G01*
X166769227Y-109249328D01*
X166769229Y-109249329D01*
X166806413Y-109274175D01*
X166843095Y-109298685D01*
X166905915Y-109361505D01*
X166955272Y-109435373D01*
X166989269Y-109517448D01*
X167006600Y-109604579D01*
X167006600Y-109693421D01*
X166989269Y-109780552D01*
X166955272Y-109862627D01*
X166955271Y-109862629D01*
X166905914Y-109936496D01*
X166843096Y-109999314D01*
X166769229Y-110048671D01*
X166769228Y-110048672D01*
X166769227Y-110048672D01*
X166687152Y-110082669D01*
X166600021Y-110100000D01*
X166511179Y-110100000D01*
X166424048Y-110082669D01*
X166341973Y-110048672D01*
X166341972Y-110048672D01*
X166341971Y-110048671D01*
X166268104Y-109999314D01*
X166205286Y-109936496D01*
X166155929Y-109862629D01*
X166155928Y-109862627D01*
X166121931Y-109780552D01*
X166104600Y-109693421D01*
X166104600Y-109604579D01*
X166121931Y-109517448D01*
X166155928Y-109435373D01*
X166205285Y-109361505D01*
X166268105Y-109298685D01*
X166304787Y-109274175D01*
X166341971Y-109249329D01*
X166341973Y-109249328D01*
X166424048Y-109215331D01*
X166511179Y-109198000D01*
X166600021Y-109198000D01*
X166687152Y-109215331D01*
G37*
G36*
X118601000Y-109816000D02*
G01*
X116099000Y-109816000D01*
X116099000Y-108974000D01*
X118601000Y-108974000D01*
X118601000Y-109816000D01*
G37*
G36*
X114701000Y-109816000D02*
G01*
X112199000Y-109816000D01*
X112199000Y-108974000D01*
X114701000Y-108974000D01*
X114701000Y-109816000D01*
G37*
G36*
X114701000Y-108546000D02*
G01*
X112199000Y-108546000D01*
X112199000Y-107704000D01*
X114701000Y-107704000D01*
X114701000Y-108546000D01*
G37*
G36*
X118601000Y-108546000D02*
G01*
X116099000Y-108546000D01*
X116099000Y-107704000D01*
X118601000Y-107704000D01*
X118601000Y-108546000D01*
G37*
G36*
X138489000Y-107660000D02*
G01*
X135237000Y-107660000D01*
X135237000Y-106558000D01*
X138489000Y-106558000D01*
X138489000Y-107660000D01*
G37*
G36*
X176533600Y-107660000D02*
G01*
X173281600Y-107660000D01*
X173281600Y-106558000D01*
X176533600Y-106558000D01*
X176533600Y-107660000D01*
G37*
G36*
X143539000Y-107660000D02*
G01*
X140287000Y-107660000D01*
X140287000Y-106558000D01*
X143539000Y-106558000D01*
X143539000Y-107660000D01*
G37*
G36*
X171483600Y-107660000D02*
G01*
X168231600Y-107660000D01*
X168231600Y-106558000D01*
X171483600Y-106558000D01*
X171483600Y-107660000D01*
G37*
G36*
X166687152Y-106675331D02*
G01*
X166769227Y-106709328D01*
X166769229Y-106709329D01*
X166806413Y-106734175D01*
X166843095Y-106758685D01*
X166905915Y-106821505D01*
X166955272Y-106895373D01*
X166989269Y-106977448D01*
X167006600Y-107064579D01*
X167006600Y-107153421D01*
X166989269Y-107240552D01*
X166955272Y-107322627D01*
X166955271Y-107322629D01*
X166905914Y-107396496D01*
X166843096Y-107459314D01*
X166769229Y-107508671D01*
X166769228Y-107508672D01*
X166769227Y-107508672D01*
X166687152Y-107542669D01*
X166600021Y-107560000D01*
X166511179Y-107560000D01*
X166424048Y-107542669D01*
X166341973Y-107508672D01*
X166341972Y-107508672D01*
X166341971Y-107508671D01*
X166268104Y-107459314D01*
X166205286Y-107396496D01*
X166155929Y-107322629D01*
X166155928Y-107322627D01*
X166121931Y-107240552D01*
X166104600Y-107153421D01*
X166104600Y-107064579D01*
X166121931Y-106977448D01*
X166155928Y-106895373D01*
X166205285Y-106821505D01*
X166268105Y-106758685D01*
X166304787Y-106734175D01*
X166341971Y-106709329D01*
X166341973Y-106709328D01*
X166424048Y-106675331D01*
X166511179Y-106658000D01*
X166600021Y-106658000D01*
X166687152Y-106675331D01*
G37*
G36*
X118601000Y-107276000D02*
G01*
X116099000Y-107276000D01*
X116099000Y-106434000D01*
X118601000Y-106434000D01*
X118601000Y-107276000D01*
G37*
G36*
X114701000Y-107276000D02*
G01*
X112199000Y-107276000D01*
X112199000Y-106434000D01*
X114701000Y-106434000D01*
X114701000Y-107276000D01*
G37*
G36*
X119849552Y-105151331D02*
G01*
X119931627Y-105185328D01*
X119931629Y-105185329D01*
X119968813Y-105210175D01*
X120005495Y-105234685D01*
X120068315Y-105297505D01*
X120117672Y-105371373D01*
X120151669Y-105453448D01*
X120169000Y-105540579D01*
X120169000Y-105629421D01*
X120151669Y-105716552D01*
X120117672Y-105798627D01*
X120117671Y-105798629D01*
X120068314Y-105872496D01*
X120005496Y-105935314D01*
X119931629Y-105984671D01*
X119931628Y-105984672D01*
X119931627Y-105984672D01*
X119849552Y-106018669D01*
X119762421Y-106036000D01*
X119673579Y-106036000D01*
X119586448Y-106018669D01*
X119504373Y-105984672D01*
X119504372Y-105984672D01*
X119504371Y-105984671D01*
X119430504Y-105935314D01*
X119367686Y-105872496D01*
X119318329Y-105798629D01*
X119318328Y-105798627D01*
X119284331Y-105716552D01*
X119267000Y-105629421D01*
X119267000Y-105540579D01*
X119284331Y-105453448D01*
X119318328Y-105371373D01*
X119367685Y-105297505D01*
X119430505Y-105234685D01*
X119467187Y-105210175D01*
X119504371Y-105185329D01*
X119504373Y-105185328D01*
X119586448Y-105151331D01*
X119673579Y-105134000D01*
X119762421Y-105134000D01*
X119849552Y-105151331D01*
G37*
G36*
X118601000Y-106006000D02*
G01*
X116099000Y-106006000D01*
X116099000Y-105164000D01*
X118601000Y-105164000D01*
X118601000Y-106006000D01*
G37*
G36*
X114701000Y-106006000D02*
G01*
X112199000Y-106006000D01*
X112199000Y-105164000D01*
X114701000Y-105164000D01*
X114701000Y-106006000D01*
G37*
G36*
X143539000Y-105120000D02*
G01*
X140287000Y-105120000D01*
X140287000Y-104018000D01*
X143539000Y-104018000D01*
X143539000Y-105120000D01*
G37*
G36*
X138489000Y-105120000D02*
G01*
X135237000Y-105120000D01*
X135237000Y-104018000D01*
X138489000Y-104018000D01*
X138489000Y-105120000D01*
G37*
G36*
X176533600Y-105120000D02*
G01*
X173281600Y-105120000D01*
X173281600Y-104018000D01*
X176533600Y-104018000D01*
X176533600Y-105120000D01*
G37*
G36*
X171483600Y-105120000D02*
G01*
X168231600Y-105120000D01*
X168231600Y-104018000D01*
X171483600Y-104018000D01*
X171483600Y-105120000D01*
G37*
G36*
X166610952Y-104135331D02*
G01*
X166693027Y-104169328D01*
X166693029Y-104169329D01*
X166714159Y-104183448D01*
X166766895Y-104218685D01*
X166829715Y-104281505D01*
X166879072Y-104355373D01*
X166913069Y-104437448D01*
X166930400Y-104524579D01*
X166930400Y-104613421D01*
X166913069Y-104700552D01*
X166893138Y-104748668D01*
X166879071Y-104782629D01*
X166829714Y-104856496D01*
X166766896Y-104919314D01*
X166693029Y-104968671D01*
X166693028Y-104968672D01*
X166693027Y-104968672D01*
X166610952Y-105002669D01*
X166523821Y-105020000D01*
X166434979Y-105020000D01*
X166347848Y-105002669D01*
X166265773Y-104968672D01*
X166265772Y-104968672D01*
X166265771Y-104968671D01*
X166191904Y-104919314D01*
X166129086Y-104856496D01*
X166079729Y-104782629D01*
X166065662Y-104748668D01*
X166045731Y-104700552D01*
X166028400Y-104613421D01*
X166028400Y-104524579D01*
X166045731Y-104437448D01*
X166079728Y-104355373D01*
X166129085Y-104281505D01*
X166191905Y-104218685D01*
X166244641Y-104183448D01*
X166265771Y-104169329D01*
X166265773Y-104169328D01*
X166347848Y-104135331D01*
X166434979Y-104118000D01*
X166523821Y-104118000D01*
X166610952Y-104135331D01*
G37*
G36*
X119849552Y-103881331D02*
G01*
X119931627Y-103915328D01*
X119931629Y-103915329D01*
X119968813Y-103940175D01*
X120005495Y-103964685D01*
X120068315Y-104027505D01*
X120117672Y-104101373D01*
X120151669Y-104183448D01*
X120169000Y-104270579D01*
X120169000Y-104359421D01*
X120151669Y-104446552D01*
X120119349Y-104524579D01*
X120117671Y-104528629D01*
X120068314Y-104602496D01*
X120005496Y-104665314D01*
X119931629Y-104714671D01*
X119931628Y-104714672D01*
X119931627Y-104714672D01*
X119849552Y-104748669D01*
X119762421Y-104766000D01*
X119673579Y-104766000D01*
X119586448Y-104748669D01*
X119504373Y-104714672D01*
X119504372Y-104714672D01*
X119504371Y-104714671D01*
X119430504Y-104665314D01*
X119367686Y-104602496D01*
X119318329Y-104528629D01*
X119316651Y-104524579D01*
X119284331Y-104446552D01*
X119267000Y-104359421D01*
X119267000Y-104270579D01*
X119284331Y-104183448D01*
X119318328Y-104101373D01*
X119367685Y-104027505D01*
X119430505Y-103964685D01*
X119467187Y-103940175D01*
X119504371Y-103915329D01*
X119504373Y-103915328D01*
X119586448Y-103881331D01*
X119673579Y-103864000D01*
X119762421Y-103864000D01*
X119849552Y-103881331D01*
G37*
G36*
X118601000Y-104736000D02*
G01*
X116099000Y-104736000D01*
X116099000Y-103894000D01*
X118601000Y-103894000D01*
X118601000Y-104736000D01*
G37*
G36*
X114701000Y-104736000D02*
G01*
X112199000Y-104736000D01*
X112199000Y-103894000D01*
X114701000Y-103894000D01*
X114701000Y-104736000D01*
G37*
G36*
X119849552Y-102611331D02*
G01*
X119931627Y-102645328D01*
X119931629Y-102645329D01*
X119968813Y-102670175D01*
X120005495Y-102694685D01*
X120068315Y-102757505D01*
X120117672Y-102831373D01*
X120151669Y-102913448D01*
X120169000Y-103000579D01*
X120169000Y-103089421D01*
X120151669Y-103176552D01*
X120117672Y-103258627D01*
X120117671Y-103258629D01*
X120068314Y-103332496D01*
X120005496Y-103395314D01*
X119931629Y-103444671D01*
X119931628Y-103444672D01*
X119931627Y-103444672D01*
X119849552Y-103478669D01*
X119762421Y-103496000D01*
X119673579Y-103496000D01*
X119586448Y-103478669D01*
X119504373Y-103444672D01*
X119504372Y-103444672D01*
X119504371Y-103444671D01*
X119430504Y-103395314D01*
X119367686Y-103332496D01*
X119318329Y-103258629D01*
X119318328Y-103258627D01*
X119284331Y-103176552D01*
X119267000Y-103089421D01*
X119267000Y-103000579D01*
X119284331Y-102913448D01*
X119318328Y-102831373D01*
X119367685Y-102757505D01*
X119430505Y-102694685D01*
X119467187Y-102670175D01*
X119504371Y-102645329D01*
X119504373Y-102645328D01*
X119586448Y-102611331D01*
X119673579Y-102594000D01*
X119762421Y-102594000D01*
X119849552Y-102611331D01*
G37*
G36*
X118601000Y-103466000D02*
G01*
X116099000Y-103466000D01*
X116099000Y-102624000D01*
X118601000Y-102624000D01*
X118601000Y-103466000D01*
G37*
G36*
X114701000Y-103466000D02*
G01*
X112199000Y-103466000D01*
X112199000Y-102624000D01*
X114701000Y-102624000D01*
X114701000Y-103466000D01*
G37*
G36*
X171483600Y-102580000D02*
G01*
X168231600Y-102580000D01*
X168231600Y-101478000D01*
X171483600Y-101478000D01*
X171483600Y-102580000D01*
G37*
G36*
X138489000Y-102580000D02*
G01*
X135237000Y-102580000D01*
X135237000Y-101478000D01*
X138489000Y-101478000D01*
X138489000Y-102580000D01*
G37*
G36*
X143539000Y-102580000D02*
G01*
X140287000Y-102580000D01*
X140287000Y-101478000D01*
X143539000Y-101478000D01*
X143539000Y-102580000D01*
G37*
G36*
X176533600Y-102580000D02*
G01*
X173281600Y-102580000D01*
X173281600Y-101478000D01*
X176533600Y-101478000D01*
X176533600Y-102580000D01*
G37*
G36*
X166636352Y-101595331D02*
G01*
X166718427Y-101629328D01*
X166718429Y-101629329D01*
X166739559Y-101643448D01*
X166792295Y-101678685D01*
X166855115Y-101741505D01*
X166904472Y-101815373D01*
X166938469Y-101897448D01*
X166955800Y-101984579D01*
X166955800Y-102073421D01*
X166938469Y-102160552D01*
X166918538Y-102208668D01*
X166904471Y-102242629D01*
X166855114Y-102316496D01*
X166792296Y-102379314D01*
X166718429Y-102428671D01*
X166718428Y-102428672D01*
X166718427Y-102428672D01*
X166636352Y-102462669D01*
X166549221Y-102480000D01*
X166460379Y-102480000D01*
X166373248Y-102462669D01*
X166291173Y-102428672D01*
X166291172Y-102428672D01*
X166291171Y-102428671D01*
X166217304Y-102379314D01*
X166154486Y-102316496D01*
X166105129Y-102242629D01*
X166091062Y-102208668D01*
X166071131Y-102160552D01*
X166053800Y-102073421D01*
X166053800Y-101984579D01*
X166071131Y-101897448D01*
X166105128Y-101815373D01*
X166154485Y-101741505D01*
X166217305Y-101678685D01*
X166270041Y-101643448D01*
X166291171Y-101629329D01*
X166291173Y-101629328D01*
X166373248Y-101595331D01*
X166460379Y-101578000D01*
X166549221Y-101578000D01*
X166636352Y-101595331D01*
G37*
G36*
X119849552Y-101341331D02*
G01*
X119931627Y-101375328D01*
X119931629Y-101375329D01*
X119968813Y-101400175D01*
X120005495Y-101424685D01*
X120068315Y-101487505D01*
X120117672Y-101561373D01*
X120151669Y-101643448D01*
X120169000Y-101730579D01*
X120169000Y-101819421D01*
X120151669Y-101906552D01*
X120119349Y-101984579D01*
X120117671Y-101988629D01*
X120068314Y-102062496D01*
X120005496Y-102125314D01*
X119931629Y-102174671D01*
X119931628Y-102174672D01*
X119931627Y-102174672D01*
X119849552Y-102208669D01*
X119762421Y-102226000D01*
X119673579Y-102226000D01*
X119586448Y-102208669D01*
X119504373Y-102174672D01*
X119504372Y-102174672D01*
X119504371Y-102174671D01*
X119430504Y-102125314D01*
X119367686Y-102062496D01*
X119318329Y-101988629D01*
X119316651Y-101984579D01*
X119284331Y-101906552D01*
X119267000Y-101819421D01*
X119267000Y-101730579D01*
X119284331Y-101643448D01*
X119318328Y-101561373D01*
X119367685Y-101487505D01*
X119430505Y-101424685D01*
X119467187Y-101400175D01*
X119504371Y-101375329D01*
X119504373Y-101375328D01*
X119586448Y-101341331D01*
X119673579Y-101324000D01*
X119762421Y-101324000D01*
X119849552Y-101341331D01*
G37*
G36*
X114701000Y-102196000D02*
G01*
X112199000Y-102196000D01*
X112199000Y-101354000D01*
X114701000Y-101354000D01*
X114701000Y-102196000D01*
G37*
G36*
X118601000Y-102196000D02*
G01*
X116099000Y-102196000D01*
X116099000Y-101354000D01*
X118601000Y-101354000D01*
X118601000Y-102196000D01*
G37*
G36*
X114701000Y-100926000D02*
G01*
X112199000Y-100926000D01*
X112199000Y-100084000D01*
X114701000Y-100084000D01*
X114701000Y-100926000D01*
G37*
G36*
X118601000Y-100926000D02*
G01*
X116099000Y-100926000D01*
X116099000Y-100084000D01*
X118601000Y-100084000D01*
X118601000Y-100926000D01*
G37*
G36*
X143539000Y-100040000D02*
G01*
X140287000Y-100040000D01*
X140287000Y-98938000D01*
X143539000Y-98938000D01*
X143539000Y-100040000D01*
G37*
G36*
X171483600Y-100040000D02*
G01*
X168231600Y-100040000D01*
X168231600Y-98938000D01*
X171483600Y-98938000D01*
X171483600Y-100040000D01*
G37*
G36*
X138489000Y-100040000D02*
G01*
X135237000Y-100040000D01*
X135237000Y-98938000D01*
X138489000Y-98938000D01*
X138489000Y-100040000D01*
G37*
G36*
X176533600Y-100040000D02*
G01*
X173281600Y-100040000D01*
X173281600Y-98938000D01*
X176533600Y-98938000D01*
X176533600Y-100040000D01*
G37*
G36*
X166610952Y-99055331D02*
G01*
X166693027Y-99089328D01*
X166693029Y-99089329D01*
X166714159Y-99103448D01*
X166766895Y-99138685D01*
X166829715Y-99201505D01*
X166879072Y-99275373D01*
X166913069Y-99357448D01*
X166930400Y-99444579D01*
X166930400Y-99533421D01*
X166913069Y-99620552D01*
X166893138Y-99668668D01*
X166879071Y-99702629D01*
X166829714Y-99776496D01*
X166766896Y-99839314D01*
X166693029Y-99888671D01*
X166693028Y-99888672D01*
X166693027Y-99888672D01*
X166610952Y-99922669D01*
X166523821Y-99940000D01*
X166434979Y-99940000D01*
X166347848Y-99922669D01*
X166265773Y-99888672D01*
X166265772Y-99888672D01*
X166265771Y-99888671D01*
X166191904Y-99839314D01*
X166129086Y-99776496D01*
X166079729Y-99702629D01*
X166065662Y-99668668D01*
X166045731Y-99620552D01*
X166028400Y-99533421D01*
X166028400Y-99444579D01*
X166045731Y-99357448D01*
X166079728Y-99275373D01*
X166129085Y-99201505D01*
X166191905Y-99138685D01*
X166244641Y-99103448D01*
X166265771Y-99089329D01*
X166265773Y-99089328D01*
X166347848Y-99055331D01*
X166434979Y-99038000D01*
X166523821Y-99038000D01*
X166610952Y-99055331D01*
G37*
G36*
X119849552Y-98801331D02*
G01*
X119931627Y-98835328D01*
X119931629Y-98835329D01*
X119968813Y-98860175D01*
X120005495Y-98884685D01*
X120068315Y-98947505D01*
X120117672Y-99021373D01*
X120151669Y-99103448D01*
X120169000Y-99190579D01*
X120169000Y-99279421D01*
X120151669Y-99366552D01*
X120119349Y-99444579D01*
X120117671Y-99448629D01*
X120068314Y-99522496D01*
X120005496Y-99585314D01*
X119931629Y-99634671D01*
X119931628Y-99634672D01*
X119931627Y-99634672D01*
X119849552Y-99668669D01*
X119762421Y-99686000D01*
X119673579Y-99686000D01*
X119586448Y-99668669D01*
X119504373Y-99634672D01*
X119504372Y-99634672D01*
X119504371Y-99634671D01*
X119430504Y-99585314D01*
X119367686Y-99522496D01*
X119318329Y-99448629D01*
X119316651Y-99444579D01*
X119284331Y-99366552D01*
X119267000Y-99279421D01*
X119267000Y-99190579D01*
X119284331Y-99103448D01*
X119318328Y-99021373D01*
X119367685Y-98947505D01*
X119430505Y-98884685D01*
X119467187Y-98860175D01*
X119504371Y-98835329D01*
X119504373Y-98835328D01*
X119586448Y-98801331D01*
X119673579Y-98784000D01*
X119762421Y-98784000D01*
X119849552Y-98801331D01*
G37*
G36*
X118601000Y-99656000D02*
G01*
X116099000Y-99656000D01*
X116099000Y-98814000D01*
X118601000Y-98814000D01*
X118601000Y-99656000D01*
G37*
G36*
X114701000Y-99656000D02*
G01*
X112199000Y-99656000D01*
X112199000Y-98814000D01*
X114701000Y-98814000D01*
X114701000Y-99656000D01*
G37*
G36*
X118601000Y-98386000D02*
G01*
X116099000Y-98386000D01*
X116099000Y-97544000D01*
X118601000Y-97544000D01*
X118601000Y-98386000D01*
G37*
G36*
X114701000Y-98386000D02*
G01*
X112199000Y-98386000D01*
X112199000Y-97544000D01*
X114701000Y-97544000D01*
X114701000Y-98386000D01*
G37*
G36*
X138489000Y-97500000D02*
G01*
X135237000Y-97500000D01*
X135237000Y-96398000D01*
X138489000Y-96398000D01*
X138489000Y-97500000D01*
G37*
G36*
X176533600Y-97500000D02*
G01*
X173281600Y-97500000D01*
X173281600Y-96398000D01*
X176533600Y-96398000D01*
X176533600Y-97500000D01*
G37*
G36*
X171483600Y-97500000D02*
G01*
X168231600Y-97500000D01*
X168231600Y-96398000D01*
X171483600Y-96398000D01*
X171483600Y-97500000D01*
G37*
G36*
X143539000Y-97500000D02*
G01*
X140287000Y-97500000D01*
X140287000Y-96398000D01*
X143539000Y-96398000D01*
X143539000Y-97500000D01*
G37*
G36*
X166610952Y-96515331D02*
G01*
X166693027Y-96549328D01*
X166693029Y-96549329D01*
X166730213Y-96574175D01*
X166766895Y-96598685D01*
X166829715Y-96661505D01*
X166879072Y-96735373D01*
X166913069Y-96817448D01*
X166930400Y-96904579D01*
X166930400Y-96993421D01*
X166913069Y-97080552D01*
X166879072Y-97162627D01*
X166879071Y-97162629D01*
X166829714Y-97236496D01*
X166766896Y-97299314D01*
X166693029Y-97348671D01*
X166693028Y-97348672D01*
X166693027Y-97348672D01*
X166610952Y-97382669D01*
X166523821Y-97400000D01*
X166434979Y-97400000D01*
X166347848Y-97382669D01*
X166265773Y-97348672D01*
X166265772Y-97348672D01*
X166265771Y-97348671D01*
X166191904Y-97299314D01*
X166129086Y-97236496D01*
X166079729Y-97162629D01*
X166079728Y-97162627D01*
X166045731Y-97080552D01*
X166028400Y-96993421D01*
X166028400Y-96904579D01*
X166045731Y-96817448D01*
X166079728Y-96735373D01*
X166129085Y-96661505D01*
X166191905Y-96598685D01*
X166228587Y-96574175D01*
X166265771Y-96549329D01*
X166265773Y-96549328D01*
X166347848Y-96515331D01*
X166434979Y-96498000D01*
X166523821Y-96498000D01*
X166610952Y-96515331D01*
G37*
G36*
X118601000Y-97116000D02*
G01*
X116099000Y-97116000D01*
X116099000Y-96274000D01*
X118601000Y-96274000D01*
X118601000Y-97116000D01*
G37*
G36*
X114701000Y-97116000D02*
G01*
X112199000Y-97116000D01*
X112199000Y-96274000D01*
X114701000Y-96274000D01*
X114701000Y-97116000D01*
G37*
G36*
X114701000Y-95846000D02*
G01*
X112199000Y-95846000D01*
X112199000Y-95004000D01*
X114701000Y-95004000D01*
X114701000Y-95846000D01*
G37*
G36*
X118601000Y-95846000D02*
G01*
X116099000Y-95846000D01*
X116099000Y-95004000D01*
X118601000Y-95004000D01*
X118601000Y-95846000D01*
G37*
G36*
X138489000Y-94960000D02*
G01*
X135237000Y-94960000D01*
X135237000Y-93858000D01*
X138489000Y-93858000D01*
X138489000Y-94960000D01*
G37*
G36*
X143539000Y-94960000D02*
G01*
X140287000Y-94960000D01*
X140287000Y-93858000D01*
X143539000Y-93858000D01*
X143539000Y-94960000D01*
G37*
G36*
X176533600Y-94960000D02*
G01*
X173281600Y-94960000D01*
X173281600Y-93858000D01*
X176533600Y-93858000D01*
X176533600Y-94960000D01*
G37*
G36*
X171483600Y-94960000D02*
G01*
X168231600Y-94960000D01*
X168231600Y-93858000D01*
X171483600Y-93858000D01*
X171483600Y-94960000D01*
G37*
G36*
X166610952Y-93975331D02*
G01*
X166693027Y-94009328D01*
X166693029Y-94009329D01*
X166730213Y-94034175D01*
X166766895Y-94058685D01*
X166829715Y-94121505D01*
X166879072Y-94195373D01*
X166913069Y-94277448D01*
X166930400Y-94364579D01*
X166930400Y-94453421D01*
X166913069Y-94540552D01*
X166879072Y-94622627D01*
X166879071Y-94622629D01*
X166829714Y-94696496D01*
X166766896Y-94759314D01*
X166693029Y-94808671D01*
X166693028Y-94808672D01*
X166693027Y-94808672D01*
X166610952Y-94842669D01*
X166523821Y-94860000D01*
X166434979Y-94860000D01*
X166347848Y-94842669D01*
X166265773Y-94808672D01*
X166265772Y-94808672D01*
X166265771Y-94808671D01*
X166191904Y-94759314D01*
X166129086Y-94696496D01*
X166079729Y-94622629D01*
X166079728Y-94622627D01*
X166045731Y-94540552D01*
X166028400Y-94453421D01*
X166028400Y-94364579D01*
X166045731Y-94277448D01*
X166079728Y-94195373D01*
X166129085Y-94121505D01*
X166191905Y-94058685D01*
X166228587Y-94034175D01*
X166265771Y-94009329D01*
X166265773Y-94009328D01*
X166347848Y-93975331D01*
X166434979Y-93958000D01*
X166523821Y-93958000D01*
X166610952Y-93975331D01*
G37*
G36*
X118601000Y-94576000D02*
G01*
X116099000Y-94576000D01*
X116099000Y-93734000D01*
X118601000Y-93734000D01*
X118601000Y-94576000D01*
G37*
G36*
X114701000Y-94576000D02*
G01*
X112199000Y-94576000D01*
X112199000Y-93734000D01*
X114701000Y-93734000D01*
X114701000Y-94576000D01*
G37*
G36*
X114701000Y-93306000D02*
G01*
X112199000Y-93306000D01*
X112199000Y-92464000D01*
X114701000Y-92464000D01*
X114701000Y-93306000D01*
G37*
G36*
X118601000Y-93306000D02*
G01*
X116099000Y-93306000D01*
X116099000Y-92464000D01*
X118601000Y-92464000D01*
X118601000Y-93306000D01*
G37*
G36*
X143539000Y-92420000D02*
G01*
X140287000Y-92420000D01*
X140287000Y-91318000D01*
X143539000Y-91318000D01*
X143539000Y-92420000D01*
G37*
G36*
X138489000Y-92420000D02*
G01*
X135237000Y-92420000D01*
X135237000Y-91318000D01*
X138489000Y-91318000D01*
X138489000Y-92420000D01*
G37*
G36*
X176533600Y-92420000D02*
G01*
X173281600Y-92420000D01*
X173281600Y-91318000D01*
X176533600Y-91318000D01*
X176533600Y-92420000D01*
G37*
G36*
X171483600Y-92420000D02*
G01*
X168231600Y-92420000D01*
X168231600Y-91318000D01*
X171483600Y-91318000D01*
X171483600Y-92420000D01*
G37*
G36*
X145376552Y-91435331D02*
G01*
X145458627Y-91469328D01*
X145458629Y-91469329D01*
X145495813Y-91494175D01*
X145532495Y-91518685D01*
X145595315Y-91581505D01*
X145644672Y-91655373D01*
X145678669Y-91737448D01*
X145696000Y-91824579D01*
X145696000Y-91913421D01*
X145678669Y-92000552D01*
X145644672Y-92082627D01*
X145644671Y-92082629D01*
X145595314Y-92156496D01*
X145532496Y-92219314D01*
X145458629Y-92268671D01*
X145458628Y-92268672D01*
X145458627Y-92268672D01*
X145376552Y-92302669D01*
X145289421Y-92320000D01*
X145200579Y-92320000D01*
X145113448Y-92302669D01*
X145031373Y-92268672D01*
X145031372Y-92268672D01*
X145031371Y-92268671D01*
X144957504Y-92219314D01*
X144894686Y-92156496D01*
X144845329Y-92082629D01*
X144845328Y-92082627D01*
X144811331Y-92000552D01*
X144794000Y-91913421D01*
X144794000Y-91824579D01*
X144811331Y-91737448D01*
X144845328Y-91655373D01*
X144894685Y-91581505D01*
X144957505Y-91518685D01*
X144994187Y-91494175D01*
X145031371Y-91469329D01*
X145031373Y-91469328D01*
X145113448Y-91435331D01*
X145200579Y-91418000D01*
X145289421Y-91418000D01*
X145376552Y-91435331D01*
G37*
G36*
X114701000Y-92036000D02*
G01*
X112199000Y-92036000D01*
X112199000Y-91194000D01*
X114701000Y-91194000D01*
X114701000Y-92036000D01*
G37*
G36*
X118601000Y-92036000D02*
G01*
X116099000Y-92036000D01*
X116099000Y-91194000D01*
X118601000Y-91194000D01*
X118601000Y-92036000D01*
G37*
G36*
X114701000Y-90766000D02*
G01*
X112199000Y-90766000D01*
X112199000Y-89924000D01*
X114701000Y-89924000D01*
X114701000Y-90766000D01*
G37*
G36*
X118601000Y-90766000D02*
G01*
X116099000Y-90766000D01*
X116099000Y-89924000D01*
X118601000Y-89924000D01*
X118601000Y-90766000D01*
G37*
G36*
X171483600Y-89880000D02*
G01*
X168231600Y-89880000D01*
X168231600Y-88778000D01*
X171483600Y-88778000D01*
X171483600Y-89880000D01*
G37*
G36*
X138489000Y-89880000D02*
G01*
X135237000Y-89880000D01*
X135237000Y-88778000D01*
X138489000Y-88778000D01*
X138489000Y-89880000D01*
G37*
G36*
X143539000Y-89880000D02*
G01*
X140287000Y-89880000D01*
X140287000Y-88778000D01*
X143539000Y-88778000D01*
X143539000Y-89880000D01*
G37*
G36*
X176533600Y-89880000D02*
G01*
X173281600Y-89880000D01*
X173281600Y-88778000D01*
X176533600Y-88778000D01*
X176533600Y-89880000D01*
G37*
G36*
X145376552Y-88895331D02*
G01*
X145458627Y-88929328D01*
X145458629Y-88929329D01*
X145495813Y-88954175D01*
X145532495Y-88978685D01*
X145595315Y-89041505D01*
X145644672Y-89115373D01*
X145678669Y-89197448D01*
X145696000Y-89284579D01*
X145696000Y-89373421D01*
X145678669Y-89460552D01*
X145644672Y-89542627D01*
X145644671Y-89542629D01*
X145595314Y-89616496D01*
X145532496Y-89679314D01*
X145458629Y-89728671D01*
X145458628Y-89728672D01*
X145458627Y-89728672D01*
X145376552Y-89762669D01*
X145289421Y-89780000D01*
X145200579Y-89780000D01*
X145113448Y-89762669D01*
X145031373Y-89728672D01*
X145031372Y-89728672D01*
X145031371Y-89728671D01*
X144957504Y-89679314D01*
X144894686Y-89616496D01*
X144845329Y-89542629D01*
X144845328Y-89542627D01*
X144811331Y-89460552D01*
X144794000Y-89373421D01*
X144794000Y-89284579D01*
X144811331Y-89197448D01*
X144845328Y-89115373D01*
X144894685Y-89041505D01*
X144957505Y-88978685D01*
X144994187Y-88954175D01*
X145031371Y-88929329D01*
X145031373Y-88929328D01*
X145113448Y-88895331D01*
X145200579Y-88878000D01*
X145289421Y-88878000D01*
X145376552Y-88895331D01*
G37*
G36*
X118601000Y-89496000D02*
G01*
X116099000Y-89496000D01*
X116099000Y-88654000D01*
X118601000Y-88654000D01*
X118601000Y-89496000D01*
G37*
G36*
X114701000Y-89496000D02*
G01*
X112199000Y-89496000D01*
X112199000Y-88654000D01*
X114701000Y-88654000D01*
X114701000Y-89496000D01*
G37*
G36*
X114701000Y-88226000D02*
G01*
X112199000Y-88226000D01*
X112199000Y-87384000D01*
X114701000Y-87384000D01*
X114701000Y-88226000D01*
G37*
G36*
X118601000Y-88226000D02*
G01*
X116099000Y-88226000D01*
X116099000Y-87384000D01*
X118601000Y-87384000D01*
X118601000Y-88226000D01*
G37*
G36*
X138489000Y-87340000D02*
G01*
X135237000Y-87340000D01*
X135237000Y-86238000D01*
X138489000Y-86238000D01*
X138489000Y-87340000D01*
G37*
G36*
X143539000Y-87340000D02*
G01*
X140287000Y-87340000D01*
X140287000Y-86238000D01*
X143539000Y-86238000D01*
X143539000Y-87340000D01*
G37*
G36*
X176533600Y-87340000D02*
G01*
X173281600Y-87340000D01*
X173281600Y-86238000D01*
X176533600Y-86238000D01*
X176533600Y-87340000D01*
G37*
G36*
X171483600Y-87340000D02*
G01*
X168231600Y-87340000D01*
X168231600Y-86238000D01*
X171483600Y-86238000D01*
X171483600Y-87340000D01*
G37*
G36*
X145376552Y-86355331D02*
G01*
X145458627Y-86389328D01*
X145458629Y-86389329D01*
X145479759Y-86403448D01*
X145532495Y-86438685D01*
X145595315Y-86501505D01*
X145644672Y-86575373D01*
X145678669Y-86657448D01*
X145696000Y-86744579D01*
X145696000Y-86833421D01*
X145678669Y-86920552D01*
X145658738Y-86968668D01*
X145644671Y-87002629D01*
X145595314Y-87076496D01*
X145532496Y-87139314D01*
X145458629Y-87188671D01*
X145458628Y-87188672D01*
X145458627Y-87188672D01*
X145376552Y-87222669D01*
X145289421Y-87240000D01*
X145200579Y-87240000D01*
X145113448Y-87222669D01*
X145031373Y-87188672D01*
X145031372Y-87188672D01*
X145031371Y-87188671D01*
X144957504Y-87139314D01*
X144894686Y-87076496D01*
X144845329Y-87002629D01*
X144831262Y-86968668D01*
X144811331Y-86920552D01*
X144794000Y-86833421D01*
X144794000Y-86744579D01*
X144811331Y-86657448D01*
X144845328Y-86575373D01*
X144894685Y-86501505D01*
X144957505Y-86438685D01*
X145010241Y-86403448D01*
X145031371Y-86389329D01*
X145031373Y-86389328D01*
X145113448Y-86355331D01*
X145200579Y-86338000D01*
X145289421Y-86338000D01*
X145376552Y-86355331D01*
G37*
G36*
X119849552Y-86101331D02*
G01*
X119931627Y-86135328D01*
X119931629Y-86135329D01*
X119968813Y-86160175D01*
X120005495Y-86184685D01*
X120068315Y-86247505D01*
X120117672Y-86321373D01*
X120151669Y-86403448D01*
X120169000Y-86490579D01*
X120169000Y-86579421D01*
X120151669Y-86666552D01*
X120119349Y-86744579D01*
X120117671Y-86748629D01*
X120068314Y-86822496D01*
X120005496Y-86885314D01*
X119931629Y-86934671D01*
X119931628Y-86934672D01*
X119931627Y-86934672D01*
X119849552Y-86968669D01*
X119762421Y-86986000D01*
X119673579Y-86986000D01*
X119586448Y-86968669D01*
X119504373Y-86934672D01*
X119504372Y-86934672D01*
X119504371Y-86934671D01*
X119430504Y-86885314D01*
X119367686Y-86822496D01*
X119318329Y-86748629D01*
X119316651Y-86744579D01*
X119284331Y-86666552D01*
X119267000Y-86579421D01*
X119267000Y-86490579D01*
X119284331Y-86403448D01*
X119318328Y-86321373D01*
X119367685Y-86247505D01*
X119430505Y-86184685D01*
X119467187Y-86160175D01*
X119504371Y-86135329D01*
X119504373Y-86135328D01*
X119586448Y-86101331D01*
X119673579Y-86084000D01*
X119762421Y-86084000D01*
X119849552Y-86101331D01*
G37*
G36*
X114701000Y-86956000D02*
G01*
X112199000Y-86956000D01*
X112199000Y-86114000D01*
X114701000Y-86114000D01*
X114701000Y-86956000D01*
G37*
G36*
X118601000Y-86956000D02*
G01*
X116099000Y-86956000D01*
X116099000Y-86114000D01*
X118601000Y-86114000D01*
X118601000Y-86956000D01*
G37*
G36*
X119849552Y-84831331D02*
G01*
X119931627Y-84865328D01*
X119931629Y-84865329D01*
X119968813Y-84890175D01*
X120005495Y-84914685D01*
X120068315Y-84977505D01*
X120117672Y-85051373D01*
X120151669Y-85133448D01*
X120169000Y-85220579D01*
X120169000Y-85309421D01*
X120151669Y-85396552D01*
X120117672Y-85478627D01*
X120117671Y-85478629D01*
X120068314Y-85552496D01*
X120005496Y-85615314D01*
X119931629Y-85664671D01*
X119931628Y-85664672D01*
X119931627Y-85664672D01*
X119849552Y-85698669D01*
X119762421Y-85716000D01*
X119673579Y-85716000D01*
X119586448Y-85698669D01*
X119504373Y-85664672D01*
X119504372Y-85664672D01*
X119504371Y-85664671D01*
X119430504Y-85615314D01*
X119367686Y-85552496D01*
X119318329Y-85478629D01*
X119318328Y-85478627D01*
X119284331Y-85396552D01*
X119267000Y-85309421D01*
X119267000Y-85220579D01*
X119284331Y-85133448D01*
X119318328Y-85051373D01*
X119367685Y-84977505D01*
X119430505Y-84914685D01*
X119467187Y-84890175D01*
X119504371Y-84865329D01*
X119504373Y-84865328D01*
X119586448Y-84831331D01*
X119673579Y-84814000D01*
X119762421Y-84814000D01*
X119849552Y-84831331D01*
G37*
G36*
X114701000Y-85686000D02*
G01*
X112199000Y-85686000D01*
X112199000Y-84844000D01*
X114701000Y-84844000D01*
X114701000Y-85686000D01*
G37*
G36*
X118601000Y-85686000D02*
G01*
X116099000Y-85686000D01*
X116099000Y-84844000D01*
X118601000Y-84844000D01*
X118601000Y-85686000D01*
G37*
G36*
X143539000Y-84800000D02*
G01*
X140287000Y-84800000D01*
X140287000Y-83698000D01*
X143539000Y-83698000D01*
X143539000Y-84800000D01*
G37*
G36*
X171483600Y-84800000D02*
G01*
X168231600Y-84800000D01*
X168231600Y-83698000D01*
X171483600Y-83698000D01*
X171483600Y-84800000D01*
G37*
G36*
X138489000Y-84800000D02*
G01*
X135237000Y-84800000D01*
X135237000Y-83698000D01*
X138489000Y-83698000D01*
X138489000Y-84800000D01*
G37*
G36*
X176533600Y-84800000D02*
G01*
X173281600Y-84800000D01*
X173281600Y-83698000D01*
X176533600Y-83698000D01*
X176533600Y-84800000D01*
G37*
G36*
X145376552Y-83815331D02*
G01*
X145458627Y-83849328D01*
X145458629Y-83849329D01*
X145479759Y-83863448D01*
X145532495Y-83898685D01*
X145595315Y-83961505D01*
X145644672Y-84035373D01*
X145678669Y-84117448D01*
X145696000Y-84204579D01*
X145696000Y-84293421D01*
X145678669Y-84380552D01*
X145658738Y-84428668D01*
X145644671Y-84462629D01*
X145595314Y-84536496D01*
X145532496Y-84599314D01*
X145458629Y-84648671D01*
X145458628Y-84648672D01*
X145458627Y-84648672D01*
X145376552Y-84682669D01*
X145289421Y-84700000D01*
X145200579Y-84700000D01*
X145113448Y-84682669D01*
X145031373Y-84648672D01*
X145031372Y-84648672D01*
X145031371Y-84648671D01*
X144957504Y-84599314D01*
X144894686Y-84536496D01*
X144845329Y-84462629D01*
X144831262Y-84428668D01*
X144811331Y-84380552D01*
X144794000Y-84293421D01*
X144794000Y-84204579D01*
X144811331Y-84117448D01*
X144845328Y-84035373D01*
X144894685Y-83961505D01*
X144957505Y-83898685D01*
X145010241Y-83863448D01*
X145031371Y-83849329D01*
X145031373Y-83849328D01*
X145113448Y-83815331D01*
X145200579Y-83798000D01*
X145289421Y-83798000D01*
X145376552Y-83815331D01*
G37*
G36*
X119849552Y-83561331D02*
G01*
X119931627Y-83595328D01*
X119931629Y-83595329D01*
X119968813Y-83620175D01*
X120005495Y-83644685D01*
X120068315Y-83707505D01*
X120117672Y-83781373D01*
X120151669Y-83863448D01*
X120169000Y-83950579D01*
X120169000Y-84039421D01*
X120151669Y-84126552D01*
X120119349Y-84204579D01*
X120117671Y-84208629D01*
X120068314Y-84282496D01*
X120005496Y-84345314D01*
X119931629Y-84394671D01*
X119931628Y-84394672D01*
X119931627Y-84394672D01*
X119849552Y-84428669D01*
X119762421Y-84446000D01*
X119673579Y-84446000D01*
X119586448Y-84428669D01*
X119504373Y-84394672D01*
X119504372Y-84394672D01*
X119504371Y-84394671D01*
X119430504Y-84345314D01*
X119367686Y-84282496D01*
X119318329Y-84208629D01*
X119316651Y-84204579D01*
X119284331Y-84126552D01*
X119267000Y-84039421D01*
X119267000Y-83950579D01*
X119284331Y-83863448D01*
X119318328Y-83781373D01*
X119367685Y-83707505D01*
X119430505Y-83644685D01*
X119467187Y-83620175D01*
X119504371Y-83595329D01*
X119504373Y-83595328D01*
X119586448Y-83561331D01*
X119673579Y-83544000D01*
X119762421Y-83544000D01*
X119849552Y-83561331D01*
G37*
G36*
X114701000Y-84416000D02*
G01*
X112199000Y-84416000D01*
X112199000Y-83574000D01*
X114701000Y-83574000D01*
X114701000Y-84416000D01*
G37*
G36*
X118601000Y-84416000D02*
G01*
X116099000Y-84416000D01*
X116099000Y-83574000D01*
X118601000Y-83574000D01*
X118601000Y-84416000D01*
G37*
G36*
X119849552Y-82291331D02*
G01*
X119931627Y-82325328D01*
X119931629Y-82325329D01*
X119968813Y-82350175D01*
X120005495Y-82374685D01*
X120068315Y-82437505D01*
X120117672Y-82511373D01*
X120151669Y-82593448D01*
X120169000Y-82680579D01*
X120169000Y-82769421D01*
X120151669Y-82856552D01*
X120117672Y-82938627D01*
X120117671Y-82938629D01*
X120068314Y-83012496D01*
X120005496Y-83075314D01*
X119931629Y-83124671D01*
X119931628Y-83124672D01*
X119931627Y-83124672D01*
X119849552Y-83158669D01*
X119762421Y-83176000D01*
X119673579Y-83176000D01*
X119586448Y-83158669D01*
X119504373Y-83124672D01*
X119504372Y-83124672D01*
X119504371Y-83124671D01*
X119430504Y-83075314D01*
X119367686Y-83012496D01*
X119318329Y-82938629D01*
X119318328Y-82938627D01*
X119284331Y-82856552D01*
X119267000Y-82769421D01*
X119267000Y-82680579D01*
X119284331Y-82593448D01*
X119318328Y-82511373D01*
X119367685Y-82437505D01*
X119430505Y-82374685D01*
X119467187Y-82350175D01*
X119504371Y-82325329D01*
X119504373Y-82325328D01*
X119586448Y-82291331D01*
X119673579Y-82274000D01*
X119762421Y-82274000D01*
X119849552Y-82291331D01*
G37*
G36*
X111213552Y-82291331D02*
G01*
X111295627Y-82325328D01*
X111295629Y-82325329D01*
X111332813Y-82350175D01*
X111369495Y-82374685D01*
X111432315Y-82437505D01*
X111481672Y-82511373D01*
X111515669Y-82593448D01*
X111533000Y-82680579D01*
X111533000Y-82769421D01*
X111515669Y-82856552D01*
X111481672Y-82938627D01*
X111481671Y-82938629D01*
X111432314Y-83012496D01*
X111369496Y-83075314D01*
X111295629Y-83124671D01*
X111295628Y-83124672D01*
X111295627Y-83124672D01*
X111213552Y-83158669D01*
X111126421Y-83176000D01*
X111037579Y-83176000D01*
X110950448Y-83158669D01*
X110868373Y-83124672D01*
X110868372Y-83124672D01*
X110868371Y-83124671D01*
X110794504Y-83075314D01*
X110731686Y-83012496D01*
X110682329Y-82938629D01*
X110682328Y-82938627D01*
X110648331Y-82856552D01*
X110631000Y-82769421D01*
X110631000Y-82680579D01*
X110648331Y-82593448D01*
X110682328Y-82511373D01*
X110731685Y-82437505D01*
X110794505Y-82374685D01*
X110831187Y-82350175D01*
X110868371Y-82325329D01*
X110868373Y-82325328D01*
X110950448Y-82291331D01*
X111037579Y-82274000D01*
X111126421Y-82274000D01*
X111213552Y-82291331D01*
G37*
G36*
X118601000Y-83146000D02*
G01*
X116099000Y-83146000D01*
X116099000Y-82304000D01*
X118601000Y-82304000D01*
X118601000Y-83146000D01*
G37*
G36*
X114701000Y-83146000D02*
G01*
X112199000Y-83146000D01*
X112199000Y-82304000D01*
X114701000Y-82304000D01*
X114701000Y-83146000D01*
G37*
G36*
X138489000Y-82260000D02*
G01*
X135237000Y-82260000D01*
X135237000Y-81158000D01*
X138489000Y-81158000D01*
X138489000Y-82260000D01*
G37*
G36*
X143539000Y-82260000D02*
G01*
X140287000Y-82260000D01*
X140287000Y-81158000D01*
X143539000Y-81158000D01*
X143539000Y-82260000D01*
G37*
G36*
X171483600Y-82260000D02*
G01*
X168231600Y-82260000D01*
X168231600Y-81158000D01*
X171483600Y-81158000D01*
X171483600Y-82260000D01*
G37*
G36*
X176533600Y-82260000D02*
G01*
X173281600Y-82260000D01*
X173281600Y-81158000D01*
X176533600Y-81158000D01*
X176533600Y-82260000D01*
G37*
G36*
X145376552Y-81275331D02*
G01*
X145458627Y-81309328D01*
X145458629Y-81309329D01*
X145479759Y-81323448D01*
X145532495Y-81358685D01*
X145595315Y-81421505D01*
X145644672Y-81495373D01*
X145678669Y-81577448D01*
X145696000Y-81664579D01*
X145696000Y-81753421D01*
X145678669Y-81840552D01*
X145658738Y-81888668D01*
X145644671Y-81922629D01*
X145595314Y-81996496D01*
X145532496Y-82059314D01*
X145458629Y-82108671D01*
X145458628Y-82108672D01*
X145458627Y-82108672D01*
X145376552Y-82142669D01*
X145289421Y-82160000D01*
X145200579Y-82160000D01*
X145113448Y-82142669D01*
X145031373Y-82108672D01*
X145031372Y-82108672D01*
X145031371Y-82108671D01*
X144957504Y-82059314D01*
X144894686Y-81996496D01*
X144845329Y-81922629D01*
X144831262Y-81888668D01*
X144811331Y-81840552D01*
X144794000Y-81753421D01*
X144794000Y-81664579D01*
X144811331Y-81577448D01*
X144845328Y-81495373D01*
X144894685Y-81421505D01*
X144957505Y-81358685D01*
X145010241Y-81323448D01*
X145031371Y-81309329D01*
X145031373Y-81309328D01*
X145113448Y-81275331D01*
X145200579Y-81258000D01*
X145289421Y-81258000D01*
X145376552Y-81275331D01*
G37*
G36*
X111213552Y-81021331D02*
G01*
X111295627Y-81055328D01*
X111295629Y-81055329D01*
X111332813Y-81080175D01*
X111369495Y-81104685D01*
X111432315Y-81167505D01*
X111481672Y-81241373D01*
X111515669Y-81323448D01*
X111533000Y-81410579D01*
X111533000Y-81499421D01*
X111515669Y-81586552D01*
X111483349Y-81664579D01*
X111481671Y-81668629D01*
X111432314Y-81742496D01*
X111369496Y-81805314D01*
X111295629Y-81854671D01*
X111295628Y-81854672D01*
X111295627Y-81854672D01*
X111213552Y-81888669D01*
X111126421Y-81906000D01*
X111037579Y-81906000D01*
X110950448Y-81888669D01*
X110868373Y-81854672D01*
X110868372Y-81854672D01*
X110868371Y-81854671D01*
X110794504Y-81805314D01*
X110731686Y-81742496D01*
X110682329Y-81668629D01*
X110680651Y-81664579D01*
X110648331Y-81586552D01*
X110631000Y-81499421D01*
X110631000Y-81410579D01*
X110648331Y-81323448D01*
X110682328Y-81241373D01*
X110731685Y-81167505D01*
X110794505Y-81104685D01*
X110831187Y-81080175D01*
X110868371Y-81055329D01*
X110868373Y-81055328D01*
X110950448Y-81021331D01*
X111037579Y-81004000D01*
X111126421Y-81004000D01*
X111213552Y-81021331D01*
G37*
G36*
X118601000Y-81876000D02*
G01*
X116099000Y-81876000D01*
X116099000Y-81034000D01*
X118601000Y-81034000D01*
X118601000Y-81876000D01*
G37*
G36*
X114701000Y-81876000D02*
G01*
X112199000Y-81876000D01*
X112199000Y-81034000D01*
X114701000Y-81034000D01*
X114701000Y-81876000D01*
G37*
G36*
X114701000Y-80606000D02*
G01*
X112199000Y-80606000D01*
X112199000Y-79764000D01*
X114701000Y-79764000D01*
X114701000Y-80606000D01*
G37*
G36*
X118601000Y-80606000D02*
G01*
X116099000Y-80606000D01*
X116099000Y-79764000D01*
X118601000Y-79764000D01*
X118601000Y-80606000D01*
G37*
G36*
X176533600Y-79720000D02*
G01*
X173281600Y-79720000D01*
X173281600Y-78618000D01*
X176533600Y-78618000D01*
X176533600Y-79720000D01*
G37*
G36*
X143539000Y-79720000D02*
G01*
X140287000Y-79720000D01*
X140287000Y-78618000D01*
X143539000Y-78618000D01*
X143539000Y-79720000D01*
G37*
G36*
X138489000Y-79720000D02*
G01*
X135237000Y-79720000D01*
X135237000Y-78618000D01*
X138489000Y-78618000D01*
X138489000Y-79720000D01*
G37*
G36*
X171483600Y-79720000D02*
G01*
X168231600Y-79720000D01*
X168231600Y-78618000D01*
X171483600Y-78618000D01*
X171483600Y-79720000D01*
G37*
G36*
X145376552Y-78735331D02*
G01*
X145458627Y-78769328D01*
X145458629Y-78769329D01*
X145495813Y-78794175D01*
X145532495Y-78818685D01*
X145595315Y-78881505D01*
X145644672Y-78955373D01*
X145678669Y-79037448D01*
X145696000Y-79124579D01*
X145696000Y-79213421D01*
X145678669Y-79300552D01*
X145644672Y-79382627D01*
X145644671Y-79382629D01*
X145595314Y-79456496D01*
X145532496Y-79519314D01*
X145458629Y-79568671D01*
X145458628Y-79568672D01*
X145458627Y-79568672D01*
X145376552Y-79602669D01*
X145289421Y-79620000D01*
X145200579Y-79620000D01*
X145113448Y-79602669D01*
X145031373Y-79568672D01*
X145031372Y-79568672D01*
X145031371Y-79568671D01*
X144957504Y-79519314D01*
X144894686Y-79456496D01*
X144845329Y-79382629D01*
X144845328Y-79382627D01*
X144811331Y-79300552D01*
X144794000Y-79213421D01*
X144794000Y-79124579D01*
X144811331Y-79037448D01*
X144845328Y-78955373D01*
X144894685Y-78881505D01*
X144957505Y-78818685D01*
X144994187Y-78794175D01*
X145031371Y-78769329D01*
X145031373Y-78769328D01*
X145113448Y-78735331D01*
X145200579Y-78718000D01*
X145289421Y-78718000D01*
X145376552Y-78735331D01*
G37*
G36*
X118601000Y-79336000D02*
G01*
X116099000Y-79336000D01*
X116099000Y-78494000D01*
X118601000Y-78494000D01*
X118601000Y-79336000D01*
G37*
G36*
X114701000Y-79336000D02*
G01*
X112199000Y-79336000D01*
X112199000Y-78494000D01*
X114701000Y-78494000D01*
X114701000Y-79336000D01*
G37*
G36*
X114701000Y-78066000D02*
G01*
X112199000Y-78066000D01*
X112199000Y-77224000D01*
X114701000Y-77224000D01*
X114701000Y-78066000D01*
G37*
G36*
X118601000Y-78066000D02*
G01*
X116099000Y-78066000D01*
X116099000Y-77224000D01*
X118601000Y-77224000D01*
X118601000Y-78066000D01*
G37*
G36*
X176533600Y-77180000D02*
G01*
X173281600Y-77180000D01*
X173281600Y-76078000D01*
X176533600Y-76078000D01*
X176533600Y-77180000D01*
G37*
G36*
X143539000Y-77180000D02*
G01*
X140287000Y-77180000D01*
X140287000Y-76078000D01*
X143539000Y-76078000D01*
X143539000Y-77180000D01*
G37*
G36*
X138489000Y-77180000D02*
G01*
X135237000Y-77180000D01*
X135237000Y-76078000D01*
X138489000Y-76078000D01*
X138489000Y-77180000D01*
G37*
G36*
X171483600Y-77180000D02*
G01*
X168231600Y-77180000D01*
X168231600Y-76078000D01*
X171483600Y-76078000D01*
X171483600Y-77180000D01*
G37*
G36*
X145376552Y-76195331D02*
G01*
X145458627Y-76229328D01*
X145458629Y-76229329D01*
X145495813Y-76254175D01*
X145532495Y-76278685D01*
X145595315Y-76341505D01*
X145644672Y-76415373D01*
X145678669Y-76497448D01*
X145696000Y-76584579D01*
X145696000Y-76673421D01*
X145678669Y-76760552D01*
X145644672Y-76842627D01*
X145644671Y-76842629D01*
X145595314Y-76916496D01*
X145532496Y-76979314D01*
X145458629Y-77028671D01*
X145458628Y-77028672D01*
X145458627Y-77028672D01*
X145376552Y-77062669D01*
X145289421Y-77080000D01*
X145200579Y-77080000D01*
X145113448Y-77062669D01*
X145031373Y-77028672D01*
X145031372Y-77028672D01*
X145031371Y-77028671D01*
X144957504Y-76979314D01*
X144894686Y-76916496D01*
X144845329Y-76842629D01*
X144845328Y-76842627D01*
X144811331Y-76760552D01*
X144794000Y-76673421D01*
X144794000Y-76584579D01*
X144811331Y-76497448D01*
X144845328Y-76415373D01*
X144894685Y-76341505D01*
X144957505Y-76278685D01*
X144994187Y-76254175D01*
X145031371Y-76229329D01*
X145031373Y-76229328D01*
X145113448Y-76195331D01*
X145200579Y-76178000D01*
X145289421Y-76178000D01*
X145376552Y-76195331D01*
G37*
G36*
X114701000Y-76796000D02*
G01*
X112199000Y-76796000D01*
X112199000Y-75954000D01*
X114701000Y-75954000D01*
X114701000Y-76796000D01*
G37*
G36*
X118601000Y-76796000D02*
G01*
X116099000Y-76796000D01*
X116099000Y-75954000D01*
X118601000Y-75954000D01*
X118601000Y-76796000D01*
G37*
G36*
X118601000Y-75526000D02*
G01*
X116099000Y-75526000D01*
X116099000Y-74684000D01*
X118601000Y-74684000D01*
X118601000Y-75526000D01*
G37*
G36*
X114701000Y-75526000D02*
G01*
X112199000Y-75526000D01*
X112199000Y-74684000D01*
X114701000Y-74684000D01*
X114701000Y-75526000D01*
G37*
G36*
X171483600Y-74640000D02*
G01*
X168231600Y-74640000D01*
X168231600Y-73538000D01*
X171483600Y-73538000D01*
X171483600Y-74640000D01*
G37*
G36*
X138489000Y-74640000D02*
G01*
X135237000Y-74640000D01*
X135237000Y-73538000D01*
X138489000Y-73538000D01*
X138489000Y-74640000D01*
G37*
G36*
X176533600Y-74640000D02*
G01*
X173281600Y-74640000D01*
X173281600Y-73538000D01*
X176533600Y-73538000D01*
X176533600Y-74640000D01*
G37*
G36*
X143539000Y-74640000D02*
G01*
X140287000Y-74640000D01*
X140287000Y-73538000D01*
X143539000Y-73538000D01*
X143539000Y-74640000D01*
G37*
G36*
X166636352Y-73655331D02*
G01*
X166718427Y-73689328D01*
X166718429Y-73689329D01*
X166755613Y-73714175D01*
X166792295Y-73738685D01*
X166855115Y-73801505D01*
X166904472Y-73875373D01*
X166938469Y-73957448D01*
X166955800Y-74044579D01*
X166955800Y-74133421D01*
X166938469Y-74220552D01*
X166904472Y-74302627D01*
X166904471Y-74302629D01*
X166855114Y-74376496D01*
X166792296Y-74439314D01*
X166718429Y-74488671D01*
X166718428Y-74488672D01*
X166718427Y-74488672D01*
X166636352Y-74522669D01*
X166549221Y-74540000D01*
X166460379Y-74540000D01*
X166373248Y-74522669D01*
X166291173Y-74488672D01*
X166291172Y-74488672D01*
X166291171Y-74488671D01*
X166217304Y-74439314D01*
X166154486Y-74376496D01*
X166105129Y-74302629D01*
X166105128Y-74302627D01*
X166071131Y-74220552D01*
X166053800Y-74133421D01*
X166053800Y-74044579D01*
X166071131Y-73957448D01*
X166105128Y-73875373D01*
X166154485Y-73801505D01*
X166217305Y-73738685D01*
X166253987Y-73714175D01*
X166291171Y-73689329D01*
X166291173Y-73689328D01*
X166373248Y-73655331D01*
X166460379Y-73638000D01*
X166549221Y-73638000D01*
X166636352Y-73655331D01*
G37*
G36*
X145376552Y-73655331D02*
G01*
X145458627Y-73689328D01*
X145458629Y-73689329D01*
X145495813Y-73714175D01*
X145532495Y-73738685D01*
X145595315Y-73801505D01*
X145644672Y-73875373D01*
X145678669Y-73957448D01*
X145696000Y-74044579D01*
X145696000Y-74133421D01*
X145678669Y-74220552D01*
X145644672Y-74302627D01*
X145644671Y-74302629D01*
X145595314Y-74376496D01*
X145532496Y-74439314D01*
X145458629Y-74488671D01*
X145458628Y-74488672D01*
X145458627Y-74488672D01*
X145376552Y-74522669D01*
X145289421Y-74540000D01*
X145200579Y-74540000D01*
X145113448Y-74522669D01*
X145031373Y-74488672D01*
X145031372Y-74488672D01*
X145031371Y-74488671D01*
X144957504Y-74439314D01*
X144894686Y-74376496D01*
X144845329Y-74302629D01*
X144845328Y-74302627D01*
X144811331Y-74220552D01*
X144794000Y-74133421D01*
X144794000Y-74044579D01*
X144811331Y-73957448D01*
X144845328Y-73875373D01*
X144894685Y-73801505D01*
X144957505Y-73738685D01*
X144994187Y-73714175D01*
X145031371Y-73689329D01*
X145031373Y-73689328D01*
X145113448Y-73655331D01*
X145200579Y-73638000D01*
X145289421Y-73638000D01*
X145376552Y-73655331D01*
G37*
G36*
X118601000Y-74256000D02*
G01*
X116099000Y-74256000D01*
X116099000Y-73414000D01*
X118601000Y-73414000D01*
X118601000Y-74256000D01*
G37*
G36*
X114701000Y-74256000D02*
G01*
X112199000Y-74256000D01*
X112199000Y-73414000D01*
X114701000Y-73414000D01*
X114701000Y-74256000D01*
G37*
G36*
X118601000Y-72986000D02*
G01*
X116099000Y-72986000D01*
X116099000Y-72144000D01*
X118601000Y-72144000D01*
X118601000Y-72986000D01*
G37*
G36*
X114701000Y-72986000D02*
G01*
X112199000Y-72986000D01*
X112199000Y-72144000D01*
X114701000Y-72144000D01*
X114701000Y-72986000D01*
G37*
G36*
X176533600Y-72100000D02*
G01*
X173281600Y-72100000D01*
X173281600Y-70998000D01*
X176533600Y-70998000D01*
X176533600Y-72100000D01*
G37*
G36*
X143539000Y-72100000D02*
G01*
X140287000Y-72100000D01*
X140287000Y-70998000D01*
X143539000Y-70998000D01*
X143539000Y-72100000D01*
G37*
G36*
X138489000Y-72100000D02*
G01*
X135237000Y-72100000D01*
X135237000Y-70998000D01*
X138489000Y-70998000D01*
X138489000Y-72100000D01*
G37*
G36*
X171483600Y-72100000D02*
G01*
X168231600Y-72100000D01*
X168231600Y-70998000D01*
X171483600Y-70998000D01*
X171483600Y-72100000D01*
G37*
G36*
X145376552Y-71115331D02*
G01*
X145458627Y-71149328D01*
X145458629Y-71149329D01*
X145495813Y-71174175D01*
X145532495Y-71198685D01*
X145595315Y-71261505D01*
X145644672Y-71335373D01*
X145678669Y-71417448D01*
X145696000Y-71504579D01*
X145696000Y-71593421D01*
X145678669Y-71680552D01*
X145644672Y-71762627D01*
X145644671Y-71762629D01*
X145595314Y-71836496D01*
X145532496Y-71899314D01*
X145458629Y-71948671D01*
X145458628Y-71948672D01*
X145458627Y-71948672D01*
X145376552Y-71982669D01*
X145289421Y-72000000D01*
X145200579Y-72000000D01*
X145113448Y-71982669D01*
X145031373Y-71948672D01*
X145031372Y-71948672D01*
X145031371Y-71948671D01*
X144957504Y-71899314D01*
X144894686Y-71836496D01*
X144845329Y-71762629D01*
X144845328Y-71762627D01*
X144811331Y-71680552D01*
X144794000Y-71593421D01*
X144794000Y-71504579D01*
X144811331Y-71417448D01*
X144845328Y-71335373D01*
X144894685Y-71261505D01*
X144957505Y-71198685D01*
X144994187Y-71174175D01*
X145031371Y-71149329D01*
X145031373Y-71149328D01*
X145113448Y-71115331D01*
X145200579Y-71098000D01*
X145289421Y-71098000D01*
X145376552Y-71115331D01*
G37*
G36*
X114701000Y-71716000D02*
G01*
X112199000Y-71716000D01*
X112199000Y-70874000D01*
X114701000Y-70874000D01*
X114701000Y-71716000D01*
G37*
G36*
X118601000Y-71716000D02*
G01*
X116099000Y-71716000D01*
X116099000Y-70874000D01*
X118601000Y-70874000D01*
X118601000Y-71716000D01*
G37*
G36*
X118601000Y-70446000D02*
G01*
X116099000Y-70446000D01*
X116099000Y-69604000D01*
X118601000Y-69604000D01*
X118601000Y-70446000D01*
G37*
G36*
X114701000Y-70446000D02*
G01*
X112199000Y-70446000D01*
X112199000Y-69604000D01*
X114701000Y-69604000D01*
X114701000Y-70446000D01*
G37*
G36*
X138489000Y-69560000D02*
G01*
X135237000Y-69560000D01*
X135237000Y-68458000D01*
X138489000Y-68458000D01*
X138489000Y-69560000D01*
G37*
G36*
X143539000Y-69560000D02*
G01*
X140287000Y-69560000D01*
X140287000Y-68458000D01*
X143539000Y-68458000D01*
X143539000Y-69560000D01*
G37*
G36*
X171483600Y-69560000D02*
G01*
X168231600Y-69560000D01*
X168231600Y-68458000D01*
X171483600Y-68458000D01*
X171483600Y-69560000D01*
G37*
G36*
X176533600Y-69560000D02*
G01*
X173281600Y-69560000D01*
X173281600Y-68458000D01*
X176533600Y-68458000D01*
X176533600Y-69560000D01*
G37*
G36*
X166585552Y-68575331D02*
G01*
X166667627Y-68609328D01*
X166667629Y-68609329D01*
X166704813Y-68634175D01*
X166741495Y-68658685D01*
X166804315Y-68721505D01*
X166853672Y-68795373D01*
X166887669Y-68877448D01*
X166905000Y-68964579D01*
X166905000Y-69053421D01*
X166887669Y-69140552D01*
X166853672Y-69222627D01*
X166853671Y-69222629D01*
X166804314Y-69296496D01*
X166741496Y-69359314D01*
X166667629Y-69408671D01*
X166667628Y-69408672D01*
X166667627Y-69408672D01*
X166585552Y-69442669D01*
X166498421Y-69460000D01*
X166409579Y-69460000D01*
X166322448Y-69442669D01*
X166240373Y-69408672D01*
X166240372Y-69408672D01*
X166240371Y-69408671D01*
X166166504Y-69359314D01*
X166103686Y-69296496D01*
X166054329Y-69222629D01*
X166054328Y-69222627D01*
X166020331Y-69140552D01*
X166003000Y-69053421D01*
X166003000Y-68964579D01*
X166020331Y-68877448D01*
X166054328Y-68795373D01*
X166103685Y-68721505D01*
X166166505Y-68658685D01*
X166203187Y-68634175D01*
X166240371Y-68609329D01*
X166240373Y-68609328D01*
X166322448Y-68575331D01*
X166409579Y-68558000D01*
X166498421Y-68558000D01*
X166585552Y-68575331D01*
G37*
G36*
X118601000Y-69176000D02*
G01*
X116099000Y-69176000D01*
X116099000Y-68334000D01*
X118601000Y-68334000D01*
X118601000Y-69176000D01*
G37*
G36*
X114701000Y-69176000D02*
G01*
X112199000Y-69176000D01*
X112199000Y-68334000D01*
X114701000Y-68334000D01*
X114701000Y-69176000D01*
G37*
M02*
