G04 #@! TF.GenerationSoftware,KiCad,Pcbnew,5.1.5-52549c5~84~ubuntu18.04.1*
G04 #@! TF.CreationDate,2020-01-12T14:58:15-06:00*
G04 #@! TF.ProjectId,bloop-zturn-adapter,626c6f6f-702d-47a7-9475-726e2d616461,rev?*
G04 #@! TF.SameCoordinates,Original*
G04 #@! TF.FileFunction,Legend,Bot*
G04 #@! TF.FilePolarity,Positive*
%FSLAX46Y46*%
G04 Gerber Fmt 4.6, Leading zero omitted, Abs format (unit mm)*
G04 Created by KiCad (PCBNEW 5.1.5-52549c5~84~ubuntu18.04.1) date 2020-01-12 14:58:15*
%MOMM*%
%LPD*%
G04 APERTURE LIST*
%ADD10C,0.150000*%
G04 APERTURE END LIST*
D10*
X111071428Y-105309523D02*
X111023809Y-105166666D01*
X110976190Y-105119047D01*
X110880952Y-105071428D01*
X110738095Y-105071428D01*
X110642857Y-105119047D01*
X110595238Y-105166666D01*
X110547619Y-105261904D01*
X110547619Y-105642857D01*
X111547619Y-105642857D01*
X111547619Y-105309523D01*
X111500000Y-105214285D01*
X111452380Y-105166666D01*
X111357142Y-105119047D01*
X111261904Y-105119047D01*
X111166666Y-105166666D01*
X111119047Y-105214285D01*
X111071428Y-105309523D01*
X111071428Y-105642857D01*
X110547619Y-104500000D02*
X110595238Y-104595238D01*
X110690476Y-104642857D01*
X111547619Y-104642857D01*
X110547619Y-103976190D02*
X110595238Y-104071428D01*
X110642857Y-104119047D01*
X110738095Y-104166666D01*
X111023809Y-104166666D01*
X111119047Y-104119047D01*
X111166666Y-104071428D01*
X111214285Y-103976190D01*
X111214285Y-103833333D01*
X111166666Y-103738095D01*
X111119047Y-103690476D01*
X111023809Y-103642857D01*
X110738095Y-103642857D01*
X110642857Y-103690476D01*
X110595238Y-103738095D01*
X110547619Y-103833333D01*
X110547619Y-103976190D01*
X110547619Y-103071428D02*
X110595238Y-103166666D01*
X110642857Y-103214285D01*
X110738095Y-103261904D01*
X111023809Y-103261904D01*
X111119047Y-103214285D01*
X111166666Y-103166666D01*
X111214285Y-103071428D01*
X111214285Y-102928571D01*
X111166666Y-102833333D01*
X111119047Y-102785714D01*
X111023809Y-102738095D01*
X110738095Y-102738095D01*
X110642857Y-102785714D01*
X110595238Y-102833333D01*
X110547619Y-102928571D01*
X110547619Y-103071428D01*
X111214285Y-102309523D02*
X110214285Y-102309523D01*
X111166666Y-102309523D02*
X111214285Y-102214285D01*
X111214285Y-102023809D01*
X111166666Y-101928571D01*
X111119047Y-101880952D01*
X111023809Y-101833333D01*
X110738095Y-101833333D01*
X110642857Y-101880952D01*
X110595238Y-101928571D01*
X110547619Y-102023809D01*
X110547619Y-102214285D01*
X110595238Y-102309523D01*
X111547619Y-100738095D02*
X111547619Y-100071428D01*
X110547619Y-100738095D01*
X110547619Y-100071428D01*
X110928571Y-99690476D02*
X110928571Y-98928571D01*
X111547619Y-98595238D02*
X111547619Y-98023809D01*
X110547619Y-98309523D02*
X111547619Y-98309523D01*
X111214285Y-97261904D02*
X110547619Y-97261904D01*
X111214285Y-97690476D02*
X110690476Y-97690476D01*
X110595238Y-97642857D01*
X110547619Y-97547619D01*
X110547619Y-97404761D01*
X110595238Y-97309523D01*
X110642857Y-97261904D01*
X110547619Y-96785714D02*
X111214285Y-96785714D01*
X111023809Y-96785714D02*
X111119047Y-96738095D01*
X111166666Y-96690476D01*
X111214285Y-96595238D01*
X111214285Y-96500000D01*
X111214285Y-96166666D02*
X110547619Y-96166666D01*
X111119047Y-96166666D02*
X111166666Y-96119047D01*
X111214285Y-96023809D01*
X111214285Y-95880952D01*
X111166666Y-95785714D01*
X111071428Y-95738095D01*
X110547619Y-95738095D01*
X110833333Y-94547619D02*
X110833333Y-94071428D01*
X110547619Y-94642857D02*
X111547619Y-94309523D01*
X110547619Y-93976190D01*
X110547619Y-93214285D02*
X111547619Y-93214285D01*
X110595238Y-93214285D02*
X110547619Y-93309523D01*
X110547619Y-93500000D01*
X110595238Y-93595238D01*
X110642857Y-93642857D01*
X110738095Y-93690476D01*
X111023809Y-93690476D01*
X111119047Y-93642857D01*
X111166666Y-93595238D01*
X111214285Y-93500000D01*
X111214285Y-93309523D01*
X111166666Y-93214285D01*
X110547619Y-92309523D02*
X111071428Y-92309523D01*
X111166666Y-92357142D01*
X111214285Y-92452380D01*
X111214285Y-92642857D01*
X111166666Y-92738095D01*
X110595238Y-92309523D02*
X110547619Y-92404761D01*
X110547619Y-92642857D01*
X110595238Y-92738095D01*
X110690476Y-92785714D01*
X110785714Y-92785714D01*
X110880952Y-92738095D01*
X110928571Y-92642857D01*
X110928571Y-92404761D01*
X110976190Y-92309523D01*
X111214285Y-91833333D02*
X110214285Y-91833333D01*
X111166666Y-91833333D02*
X111214285Y-91738095D01*
X111214285Y-91547619D01*
X111166666Y-91452380D01*
X111119047Y-91404761D01*
X111023809Y-91357142D01*
X110738095Y-91357142D01*
X110642857Y-91404761D01*
X110595238Y-91452380D01*
X110547619Y-91547619D01*
X110547619Y-91738095D01*
X110595238Y-91833333D01*
X111214285Y-91071428D02*
X111214285Y-90690476D01*
X111547619Y-90928571D02*
X110690476Y-90928571D01*
X110595238Y-90880952D01*
X110547619Y-90785714D01*
X110547619Y-90690476D01*
X110595238Y-89976190D02*
X110547619Y-90071428D01*
X110547619Y-90261904D01*
X110595238Y-90357142D01*
X110690476Y-90404761D01*
X111071428Y-90404761D01*
X111166666Y-90357142D01*
X111214285Y-90261904D01*
X111214285Y-90071428D01*
X111166666Y-89976190D01*
X111071428Y-89928571D01*
X110976190Y-89928571D01*
X110880952Y-90404761D01*
X110547619Y-89500000D02*
X111214285Y-89500000D01*
X111023809Y-89500000D02*
X111119047Y-89452380D01*
X111166666Y-89404761D01*
X111214285Y-89309523D01*
X111214285Y-89214285D01*
X110547619Y-87547619D02*
X111023809Y-87880952D01*
X110547619Y-88119047D02*
X111547619Y-88119047D01*
X111547619Y-87738095D01*
X111500000Y-87642857D01*
X111452380Y-87595238D01*
X111357142Y-87547619D01*
X111214285Y-87547619D01*
X111119047Y-87595238D01*
X111071428Y-87642857D01*
X111023809Y-87738095D01*
X111023809Y-88119047D01*
X110595238Y-86738095D02*
X110547619Y-86833333D01*
X110547619Y-87023809D01*
X110595238Y-87119047D01*
X110690476Y-87166666D01*
X111071428Y-87166666D01*
X111166666Y-87119047D01*
X111214285Y-87023809D01*
X111214285Y-86833333D01*
X111166666Y-86738095D01*
X111071428Y-86690476D01*
X110976190Y-86690476D01*
X110880952Y-87166666D01*
X111214285Y-86357142D02*
X110547619Y-86119047D01*
X111214285Y-85880952D01*
X110833333Y-84785714D02*
X110833333Y-84309523D01*
X110547619Y-84880952D02*
X111547619Y-84547619D01*
X110547619Y-84214285D01*
M02*
