M48
; DRILL file {KiCad 5.1.5-52549c5~84~ubuntu18.04.1} date Sun 12 Jan 2020 02:55:04 PM CST
; FORMAT={-:-/ absolute / inch / decimal}
; #@! TF.CreationDate,2020-01-12T14:55:04-06:00
; #@! TF.GenerationSoftware,Kicad,Pcbnew,5.1.5-52549c5~84~ubuntu18.04.1
; #@! TF.FileFunction,Plated,1,2,PTH
FMAT,2
INCH
T1C0.0157
%
G90
G05
T1
X4.3733Y-3.2069
X4.3733Y-3.2569
X4.3733Y-4.6069
X4.7123Y-4.3569
X4.7123Y-4.4069
X4.7133Y-3.2569
X4.7133Y-3.3069
X4.7133Y-3.3569
X4.7133Y-3.4069
X4.7133Y-3.9069
X4.7133Y-4.0069
X4.7133Y-4.0569
X4.7133Y-4.1069
X4.7133Y-4.1569
X4.7133Y-4.5069
X4.7133Y-4.6069
X4.7143Y-4.5579
X4.7146Y-4.6555
X5.7183Y-2.8169
X5.7183Y-2.9169
X5.7183Y-3.0169
X5.7183Y-3.1169
X5.7183Y-3.2169
X5.7183Y-3.3169
X5.7183Y-3.4169
X5.7183Y-3.5169
X5.7183Y-3.6169
X6.5533Y-2.7169
X6.5543Y-3.7169
X6.5543Y-3.8169
X6.5543Y-3.9169
X6.5543Y-4.1169
X6.5553Y-2.9169
X6.5553Y-4.0169
X6.5573Y-4.2169
X6.5573Y-4.3169
T0
M30
