G04 #@! TF.GenerationSoftware,KiCad,Pcbnew,5.1.5-52549c5~84~ubuntu18.04.1*
G04 #@! TF.CreationDate,2020-01-12T14:58:15-06:00*
G04 #@! TF.ProjectId,bloop-zturn-adapter,626c6f6f-702d-47a7-9475-726e2d616461,rev?*
G04 #@! TF.SameCoordinates,Original*
G04 #@! TF.FileFunction,Paste,Top*
G04 #@! TF.FilePolarity,Positive*
%FSLAX46Y46*%
G04 Gerber Fmt 4.6, Leading zero omitted, Abs format (unit mm)*
G04 Created by KiCad (PCBNEW 5.1.5-52549c5~84~ubuntu18.04.1) date 2020-01-12 14:58:15*
%MOMM*%
%LPD*%
G04 APERTURE LIST*
%ADD10R,2.400000X0.740000*%
%ADD11R,3.150000X1.000000*%
G04 APERTURE END LIST*
D10*
X117350000Y-68755000D03*
X113450000Y-68755000D03*
X117350000Y-70025000D03*
X113450000Y-70025000D03*
X117350000Y-71295000D03*
X113450000Y-71295000D03*
X117350000Y-72565000D03*
X113450000Y-72565000D03*
X117350000Y-73835000D03*
X113450000Y-73835000D03*
X117350000Y-75105000D03*
X113450000Y-75105000D03*
X117350000Y-76375000D03*
X113450000Y-76375000D03*
X117350000Y-77645000D03*
X113450000Y-77645000D03*
X117350000Y-78915000D03*
X113450000Y-78915000D03*
X117350000Y-80185000D03*
X113450000Y-80185000D03*
X117350000Y-81455000D03*
X113450000Y-81455000D03*
X117350000Y-82725000D03*
X113450000Y-82725000D03*
X117350000Y-83995000D03*
X113450000Y-83995000D03*
X117350000Y-85265000D03*
X113450000Y-85265000D03*
X117350000Y-86535000D03*
X113450000Y-86535000D03*
X117350000Y-87805000D03*
X113450000Y-87805000D03*
X117350000Y-89075000D03*
X113450000Y-89075000D03*
X117350000Y-90345000D03*
X113450000Y-90345000D03*
X117350000Y-91615000D03*
X113450000Y-91615000D03*
X117350000Y-92885000D03*
X113450000Y-92885000D03*
X117350000Y-94155000D03*
X113450000Y-94155000D03*
X117350000Y-95425000D03*
X113450000Y-95425000D03*
X117350000Y-96695000D03*
X113450000Y-96695000D03*
X117350000Y-97965000D03*
X113450000Y-97965000D03*
X117350000Y-99235000D03*
X113450000Y-99235000D03*
X117350000Y-100505000D03*
X113450000Y-100505000D03*
X117350000Y-101775000D03*
X113450000Y-101775000D03*
X117350000Y-103045000D03*
X113450000Y-103045000D03*
X117350000Y-104315000D03*
X113450000Y-104315000D03*
X117350000Y-105585000D03*
X113450000Y-105585000D03*
X117350000Y-106855000D03*
X113450000Y-106855000D03*
X117350000Y-108125000D03*
X113450000Y-108125000D03*
X117350000Y-109395000D03*
X113450000Y-109395000D03*
X117350000Y-110665000D03*
X113450000Y-110665000D03*
X117350000Y-111935000D03*
X113450000Y-111935000D03*
X117350000Y-113205000D03*
X113450000Y-113205000D03*
X117350000Y-114475000D03*
X113450000Y-114475000D03*
X117350000Y-115745000D03*
X113450000Y-115745000D03*
X117350000Y-117015000D03*
X113450000Y-117015000D03*
X117350000Y-118285000D03*
X113450000Y-118285000D03*
D11*
X141913000Y-117269000D03*
X136863000Y-117269000D03*
X141913000Y-114729000D03*
X136863000Y-114729000D03*
X141913000Y-112189000D03*
X136863000Y-112189000D03*
X141913000Y-109649000D03*
X136863000Y-109649000D03*
X141913000Y-107109000D03*
X136863000Y-107109000D03*
X141913000Y-104569000D03*
X136863000Y-104569000D03*
X141913000Y-102029000D03*
X136863000Y-102029000D03*
X141913000Y-99489000D03*
X136863000Y-99489000D03*
X141913000Y-96949000D03*
X136863000Y-96949000D03*
X141913000Y-94409000D03*
X136863000Y-94409000D03*
X141913000Y-91869000D03*
X136863000Y-91869000D03*
X141913000Y-89329000D03*
X136863000Y-89329000D03*
X141913000Y-86789000D03*
X136863000Y-86789000D03*
X141913000Y-84249000D03*
X136863000Y-84249000D03*
X141913000Y-81709000D03*
X136863000Y-81709000D03*
X141913000Y-79169000D03*
X136863000Y-79169000D03*
X141913000Y-76629000D03*
X136863000Y-76629000D03*
X141913000Y-74089000D03*
X136863000Y-74089000D03*
X141913000Y-71549000D03*
X136863000Y-71549000D03*
X141913000Y-69009000D03*
X136863000Y-69009000D03*
X174907600Y-117269000D03*
X169857600Y-117269000D03*
X174907600Y-114729000D03*
X169857600Y-114729000D03*
X174907600Y-112189000D03*
X169857600Y-112189000D03*
X174907600Y-109649000D03*
X169857600Y-109649000D03*
X174907600Y-107109000D03*
X169857600Y-107109000D03*
X174907600Y-104569000D03*
X169857600Y-104569000D03*
X174907600Y-102029000D03*
X169857600Y-102029000D03*
X174907600Y-99489000D03*
X169857600Y-99489000D03*
X174907600Y-96949000D03*
X169857600Y-96949000D03*
X174907600Y-94409000D03*
X169857600Y-94409000D03*
X174907600Y-91869000D03*
X169857600Y-91869000D03*
X174907600Y-89329000D03*
X169857600Y-89329000D03*
X174907600Y-86789000D03*
X169857600Y-86789000D03*
X174907600Y-84249000D03*
X169857600Y-84249000D03*
X174907600Y-81709000D03*
X169857600Y-81709000D03*
X174907600Y-79169000D03*
X169857600Y-79169000D03*
X174907600Y-76629000D03*
X169857600Y-76629000D03*
X174907600Y-74089000D03*
X169857600Y-74089000D03*
X174907600Y-71549000D03*
X169857600Y-71549000D03*
X174907600Y-69009000D03*
X169857600Y-69009000D03*
M02*
